<?xml version="1.0" standalone="no"?>
<!DOCTYPE svg PUBLIC "-//W3C//DTD SVG 1.1//EN" "http://www.w3.org/Graphics/SVG/1.1/DTD/svg11.dtd">
<svg xmlns="http://www.w3.org/2000/svg">
<metadata>Generated by Fontastic.me</metadata>
<defs>
<font id="commerce" horiz-adv-x="512">
<font-face font-family="commerce" units-per-em="512" ascent="480" descent="-32"/>
<missing-glyph horiz-adv-x="512" />

<glyph glyph-name="cloud" unicode="&#97;" d="M408 64c61 0 101 67 101 136 0 59-48 111-107 119l-10 26c-23 63-81 103-147 103-87 0-158-72-158-160 0-4 0-8 0-11-47-6-84-46-84-96 0-45 35-110 85-117z m-110 175c19 28 57 30 74 39l0-1 15 0c42 0 80-32 80-72 0-39-26-98-68-98l-309 0c-23 0-45 50-45 79 0 33 29 57 64 50l33-8-8 32c-2 9-5 18-5 28 0 65 52 117 116 117 49 0 90-28 107-75-43-25-56-86-56-86"/>
<glyph glyph-name="flag" unicode="&#98;" d="M91 439c0-14-6-24-18-32l0-361c0-3-1-5-3-7-1-2-4-2-6-2l-18 0c-3 0-5 0-7 2-2 2-2 4-2 7l0 361c-13 8-19 18-19 32 0 10 4 19 11 26 7 7 16 10 26 10 10 0 19-3 26-10 7-7 10-16 10-26z m421-18l0-218c0-5-1-9-4-11-2-3-6-6-11-8-41-22-76-33-105-33-12 0-24 2-36 6-11 4-22 9-31 14-8 5-19 9-33 13-13 4-26 7-40 7-37 0-81-14-133-42-3-2-6-3-9-3-5 0-10 2-13 6-4 3-6 8-6 13l0 212c0 6 3 11 9 15 4 3 12 7 23 13 45 22 85 34 120 34 21 0 40-3 57-8 18-6 39-14 63-26 7-3 15-5 25-5 10 0 21 2 34 6 12 4 22 8 31 13 9 5 17 10 25 14 8 4 13 6 16 6 5 0 9-2 13-6 3-3 5-7 5-12z"/>
<glyph glyph-name="language" unicode="&#99;" d="M505 233c11-27 9-57-5-90-13-32-36-59-68-81-4 0-6 0-6 1-1 0-4 4-9 9-4 6-7 9-8 10 0 2 0 4 1 5 30 21 49 47 60 78 11 31 9 57-6 76-5-13-12-26-20-39-7-13-17-27-30-41-12-14-27-26-44-33-17-8-35-11-54-8-18 2-32 9-43 21-11 12-16 28-16 47 0 29 10 54 30 76 18 17 37 28 59 34 0 0-1 51-1 51-48-8-73-12-75-12-2-1-4 0-5 2 0 1-1 5-3 15-1 9-2 14-2 16-1 0-1 1 0 2 1 0 3 1 4 1 0 0 80 14 80 14 0 37-1 57-1 58 0 3 1 4 4 4 15 0 24 1 26 1 4 0 6-1 6-4 0 0 0-53 0-53 53 8 81 11 83 11 3 2 5 1 6-3 0 0 0-4 2-12 1-7 2-11 2-12 1-4 0-6-2-6 0 0-90-16-90-16 0 0 0-52 0-52 0 0 6 0 6 0 29 0 54-6 75-18 22-13 36-30 44-52m-189-81c10-2 20-1 32 3 0 0-2 109-2 109-12-4-22-11-31-20-15-15-22-34-22-56 0-22 7-34 23-36m63 14c9 8 19 20 29 35 10 15 18 28 23 40 5 12 6 19 4 21-13 6-29 9-49 9-1 0-2 0-3 0-2-1-3-1-3-1 0 0-1-104-1-104m-230 195c4-9 13-37 27-84 15-47 29-91 43-134 14-42 20-63 20-64 0-1 0-2-2-2 0 0-44 0-44 0-2 0-3 1-3 2 0 0-25 85-25 85 0 0-90 0-90 0-17-56-25-84-26-85 0-1-1-2-3-2 0 0-44 0-44 0-1 0-2 1-2 2 3 6 33 100 90 282 1 3 2 4 5 4 0 0 49 0 49 0 4 0 5-1 5-4m-66-161c0 0 74 0 74 0 0 0-37 135-37 135 0 0-37-135-37-135"/>
<glyph glyph-name="tag" unicode="&#100;" d="M165 384c0 10-4 19-11 26-7 7-16 11-26 11-10 0-19-4-26-11-7-7-11-16-11-26 0-10 4-19 11-26 7-7 16-11 26-11 10 0 19 4 26 11 7 7 11 16 11 26z m304-165c0-10-3-18-10-25l-140-141c-8-7-17-10-26-10-11 0-19 3-26 10l-204 205c-8 7-14 16-19 29-5 12-7 23-7 33l0 119c0 10 3 18 10 26 8 7 16 10 26 10l119 0c10 0 21-2 33-7 13-5 22-11 30-19l204-204c7-7 10-16 10-26z"/>
<glyph glyph-name="th" unicode="&#101;" d="M146 155l0-54c0-8-2-15-8-20-5-5-12-8-19-8l-92 0c-7 0-14 3-19 8-5 5-8 12-8 20l0 54c0 8 3 15 8 20 5 5 12 8 19 8l92 0c7 0 14-3 19-8 6-5 8-12 8-20z m0 147l0-55c0-8-2-14-8-20-5-5-12-8-19-8l-92 0c-7 0-14 3-19 8-5 6-8 12-8 20l0 55c0 7 3 14 8 19 5 5 12 8 19 8l92 0c7 0 14-3 19-8 6-5 8-12 8-19z m183-147l0-54c0-8-3-15-8-20-5-5-12-8-19-8l-92 0c-7 0-14 3-19 8-5 5-8 12-8 20l0 54c0 8 3 15 8 20 5 5 12 8 19 8l92 0c7 0 14-3 19-8 5-5 8-12 8-20z m-183 293l0-55c0-7-2-14-8-19-5-6-12-8-19-8l-92 0c-7 0-14 2-19 8-5 5-8 12-8 19l0 55c0 8 3 14 8 19 5 6 12 8 19 8l92 0c7 0 14-2 19-8 6-5 8-11 8-19z m183-146l0-55c0-8-3-14-8-20-5-5-12-8-19-8l-92 0c-7 0-14 3-19 8-5 6-8 12-8 20l0 55c0 7 3 14 8 19 5 5 12 8 19 8l92 0c7 0 14-3 19-8 5-5 8-12 8-19z m183-147l0-54c0-8-3-15-8-20-5-5-12-8-19-8l-92 0c-7 0-14 3-19 8-6 5-8 12-8 20l0 54c0 8 2 15 8 20 5 5 12 8 19 8l92 0c7 0 14-3 19-8 5-5 8-12 8-20z m-183 293l0-55c0-7-3-14-8-19-5-6-12-8-19-8l-92 0c-7 0-14 2-19 8-5 5-8 12-8 19l0 55c0 8 3 14 8 19 5 6 12 8 19 8l92 0c7 0 14-2 19-8 5-5 8-11 8-19z m183-146l0-55c0-8-3-14-8-20-5-5-12-8-19-8l-92 0c-7 0-14 3-19 8-6 6-8 12-8 20l0 55c0 7 2 14 8 19 5 5 12 8 19 8l92 0c7 0 14-3 19-8 5-5 8-12 8-19z m0 146l0-55c0-7-3-14-8-19-5-6-12-8-19-8l-92 0c-7 0-14 2-19 8-6 5-8 12-8 19l0 55c0 8 2 14 8 19 5 6 12 8 19 8l92 0c7 0 14-2 19-8 5-5 8-11 8-19z"/>
<glyph glyph-name="usd" unicode="&#102;" d="M389 173c0-29-9-54-28-75-19-21-44-34-74-39l0-50c0-3-1-5-3-6-1-2-4-3-6-3l-39 0c-2 0-4 1-6 3-2 2-3 4-3 6l0 50c-13 2-25 5-36 9-12 4-22 8-29 13-8 4-15 9-22 13-6 5-10 9-13 11-2 2-4 4-5 5-3 4-3 8 0 12l29 39c1 1 4 3 7 3 2 0 5 0 6-3l1 0c22-19 45-31 69-36 7-1 15-2 22-2 15 0 29 4 40 12 12 8 18 20 18 35 0 5-2 10-4 15-3 5-6 9-10 12-4 3-9 7-17 11-7 4-14 7-19 9-5 2-12 5-22 9-8 3-14 6-18 7-4 2-10 5-18 8-7 3-13 6-17 9-5 2-10 6-17 10-6 4-11 8-15 12-4 4-8 9-12 14-5 6-8 11-10 17-3 5-5 12-6 19-2 7-3 14-3 22 0 26 9 49 28 69 19 20 43 33 73 38l0 52c0 2 1 4 3 6 2 2 4 3 6 3l39 0c2 0 5-1 6-3 2-1 3-3 3-6l0-50c11-2 21-4 31-7 11-3 19-6 25-10 7-3 13-6 18-10 6-4 10-7 12-9 1-1 3-2 4-4 3-3 4-7 1-10l-23-42c-1-3-4-5-6-5-3 0-6 0-8 2-1 1-2 2-4 4-2 1-6 4-11 7-6 4-11 7-17 9-6 3-13 6-21 8-9 2-17 3-25 3-18 0-33-4-44-12-12-8-17-19-17-32 0-5 1-9 2-14 2-4 5-8 9-11 4-4 7-7 11-10 3-2 9-5 16-9 7-3 13-6 17-7 5-2 11-5 20-8 10-4 18-7 23-9 6-2 13-6 22-10 9-5 16-9 22-12 5-4 11-9 17-15 7-6 12-12 15-18 4-6 7-13 9-22 3-8 4-17 4-27z"/>
<glyph glyph-name="api" unicode="&#103;" d="M493 202l-18 10c3 15 5 30 5 44 0 15-2 29-4 44l17 10c6 3 9 8 11 14 2 7 1 13-2 18l-48 84c-3 5-9 9-15 11-6 1-12 0-18-3l-17-10c-22 20-49 35-76 44l0 20c0 13-11 24-24 24l-96 0c-13 0-24-11-24-24l0-20c-27-9-53-24-76-44l-17 10c-6 3-12 4-18 3-6-2-12-6-15-11l-48-84c-3-5-4-11-2-18 2-6 5-11 11-14l18-10c-3-15-5-30-5-44 0-15 2-29 4-44l-17-10c-11-7-15-21-9-32l48-84c7-11 21-15 33-8l17 10c22-20 49-35 76-44l0-20c0-13 11-24 24-24l96 0c13 0 24 11 24 24l0 20c27 9 53 24 76 44l17-10c12-7 26-3 33 8l48 84c6 11 2 25-9 32z m-4-25l-48-83c-3-4-8-6-12-3l-22 13c-3 1-7 1-9-1-23-22-51-38-80-47-3-1-5-3-5-7l0-25c0-5-4-9-9-9l-96 0c-5 0-9 4-9 9l0 25c0 4-2 6-5 7-29 10-57 26-80 47-1 1-3 2-5 2-1 0-2-1-4-1l-22-13c-4-3-9-1-12 3l-48 83c-2 4-1 9 3 12l23 13c3 1 4 5 3 8-3 15-5 31-5 46 0 15 2 31 5 46 1 3 0 7-3 8l-23 13c-2 1-3 3-4 5 0 3 0 5 1 7l48 83c1 2 3 4 6 4 2 1 4 0 6-1l22-13c3-1 7-1 9 1 23 22 51 38 80 47 3 1 5 3 5 7l0 25c0 5 4 9 9 9l96 0c5 0 9-4 9-9l0-25c0-4 2-6 5-7 29-10 57-26 80-47 2-2 6-2 9-1l22 13c2 1 4 2 6 1 3 0 5-2 6-4l48-83c1-2 1-4 1-7-1-2-2-4-4-5l-23-13c-3-1-4-5-3-8 3-15 5-31 5-46 0-15-2-31-5-46-1-3 0-7 3-8l23-13c4-3 5-8 3-12z m-233 231c-84 0-152-68-152-152 0-84 68-152 152-152 84 0 152 68 152 152 0 84-68 152-152 152z m0-289c-75 0-137 62-137 137 0 75 62 137 137 137 75 0 137-62 137-137 0-75-62-137-137-137z m28 177l-28 0c-4 0-8-4-8-8l0-64c0-4 4-8 8-8 4 0 8 4 8 8l0 16 20 0c15 0 28 13 28 28 0 15-13 28-28 28z m0-41l-20 0 0 26 20 0c7 0 13-6 13-13 0-7-6-13-13-13z m-69 36c-1 3-4 5-7 5l-8 0c-3 0-6-2-7-5l-24-64c-2-4 0-9 4-10 4-2 8 0 10 4l4 11 34 0 4-11c1-3 4-5 7-5 1 0 2 1 3 1 3 1 5 6 4 10z m-22-44l11 30 11-30z m135 49c-4 0-7-4-7-8l0-64c0-4 3-8 7-8 4 0 8 4 8 8l0 64c0 4-4 8-8 8z m-18 129c5-2 10-4 15-6 1-1 2-1 3-1 3 0 6 2 7 5 2 4 0 8-4 10-5 2-11 4-17 6-4 1-8-1-9-5-1-4 1-8 5-9z m-209-254c-2 4-7 5-11 3-3-2-5-6-3-10 4-5 7-11 11-16 1-3 4-4 6-4 1 0 3 1 4 2 4 2 4 7 2 10-3 5-6 10-9 15z m140-91c-41 3-79 21-108 49-3 3-8 3-11 0-3-3-2-8 1-11 31-30 73-49 116-53 1 0 1 0 1 0 4 0 7 3 7 7 1 4-2 7-6 8z m123 335c-3 2-8 1-10-2-3-4-2-9 2-11 35-24 60-59 71-100 1-3 4-5 7-5 1 0 1 0 2 0 4 1 6 5 5 9-12 44-39 83-77 109z"/>
<glyph glyph-name="shopping-cart" unicode="&#104;" d="M199 97c0-16-14-30-30-30-17 0-30 14-30 30 0 17 13 30 30 30 16 0 30-13 30-30z m212 0c0-16-14-30-31-30-16 0-30 14-30 30 0 17 14 30 30 30 17 0 31-13 31-30z m-35 132c7 0 13 4 16 10l0 0 75 130 0 0c1 2 2 5 2 7 0 10-8 18-18 18l-274 0 0 33c0 10-8 18-18 18l-97 0 0 0c0 0-1 0-1 0-9 0-16-7-17-16l-1 0 0-17c0-10 8-18 18-18 0 0 1 0 1 0l0 0 64 0 0-224 0 0c0-10 8-17 17-17 0 0 0 0 0 0l304 0 0 0c8 1 15 7 16 15l0 0 0 2c0 0 0 1 0 1 0 0 0 0 0 0l0 15c0 0 0 0 0 0 0 9-7 17-16 18l0 0-270 0 0 25 199 0z"/>
<glyph glyph-name="user" unicode="&#105;" d="M457 111c0-23-7-41-21-55-14-13-32-19-55-19l-250 0c-23 0-41 6-55 19-14 14-21 32-21 55 0 10 0 20 1 29 1 10 2 20 4 31 2 11 4 22 7 31 3 10 8 19 13 28 5 9 11 17 17 23 7 7 15 12 25 16 9 3 20 5 32 5 1 0 5-2 12-6 6-4 13-9 21-14 8-5 18-9 31-13 13-4 25-6 38-6 13 0 25 2 38 6 13 4 23 8 31 13 8 5 15 10 21 14 7 4 11 6 12 6 12 0 23-2 32-5 10-4 18-9 25-16 6-6 12-14 17-23 5-9 10-18 13-28 3-9 5-20 7-31 2-11 3-21 4-31 1-9 1-19 1-29z m-91 255c0-31-11-56-32-78-22-21-48-32-78-32-30 0-56 11-78 32-21 22-32 47-32 78 0 30 11 56 32 77 22 22 48 32 78 32 30 0 56-10 78-32 21-21 32-47 32-77z"/>
<glyph glyph-name="truck" unicode="&#106;" d="M183 110c0 10-4 18-11 25-7 8-16 11-26 11-10 0-18-3-25-11-8-7-11-15-11-25 0-10 3-19 11-26 7-7 15-11 25-11 10 0 19 4 26 11 7 7 11 16 11 26z m-110 146l110 0 0 73-45 0c-3 0-5-1-7-2l-55-56c-2-2-3-4-3-6z m366-146c0 10-4 18-11 25-7 8-16 11-26 11-10 0-18-3-25-11-8-7-11-15-11-25 0-10 3-19 11-26 7-7 15-11 25-11 10 0 19 4 26 11 7 7 11 16 11 26z m73 311l0-293c0-3 0-5-1-8-1-2-2-4-4-5-2-1-3-2-5-3-1-1-3-2-6-2-4 0-6 0-7 0-1-1-3-1-7 0-4 0-6 0-7 0 0-20-7-38-21-52-14-14-32-21-52-21-20 0-37 7-51 21-15 14-22 32-22 52l-110 0c0-20-7-38-21-52-14-14-32-21-52-21-20 0-37 7-51 21-15 14-22 32-22 52l-18 0c-1 0-3-1-7-2-3-1-6-1-7 0-1 1-3 1-6 1-3-1-6 0-7 2-1 1-3 2-5 3-2 0-3 2-4 5 0 3-1 6-1 8 0 5 2 9 6 13 3 3 8 5 13 5l0 91c0 2 0 5-1 10 0 6 0 9 0 11 1 2 1 6 1 10 1 5 1 8 2 11 1 2 2 5 4 8 2 4 4 7 6 9l57 57c4 3 8 6 14 9 6 2 12 3 17 3l46 0 0 55c0 5 2 10 5 13 4 4 8 6 13 6l293 0c5 0 9-2 13-6 3-3 5-8 5-13z"/>
<glyph glyph-name="github" unicode="&#107;" d="M475 256c0-48-14-91-41-129-28-38-64-65-109-79-5-1-8-1-11 2-2 2-3 5-3 8l0 61c0 18-5 32-15 40 11 1 20 3 29 5 9 3 18 6 27 11 9 6 17 12 23 19 6 8 11 18 15 30 4 13 6 27 6 43 0 23-8 43-23 59 7 18 7 37-2 59-5 1-13 0-23-4-10-3-19-8-26-12l-11-7c-18 5-36 7-55 7-19 0-37-2-55-7-3 2-7 5-12 8-5 3-13 6-24 11-11 4-19 5-24 4-9-22-9-41-2-59-15-16-23-36-23-59 0-16 2-30 6-42 4-13 9-23 15-30 6-8 14-14 23-20 9-5 18-8 27-11 8-2 18-4 29-5-8-7-12-17-14-29-4-2-8-4-13-5-4-1-10-1-16-1-6 0-13 2-19 6-6 4-11 10-16 18-3 6-8 11-14 15-5 4-10 6-14 7l-5 1c-4 0-7-1-9-2-1-1-2-2-1-3 0-1 1-3 2-4 2-1 3-2 4-3l2-2c4-2 8-5 13-11 4-5 7-10 9-14l2-7c3-7 7-13 13-17 6-5 12-8 19-9 7-1 14-2 20-2 6 0 12 0 16 1l6 1c0-7 0-16 1-25 0-10 0-15 0-16 0-3-2-6-4-8-2-3-6-3-11-2-45 14-81 41-109 79-27 38-41 81-41 129 0 40 9 77 29 110 20 34 46 60 80 80 33 20 70 29 110 29 40 0 77-9 110-29 34-20 60-46 80-80 20-33 29-70 29-110z"/>
<glyph glyph-name="u1jhczkohb" unicode="&#108;" d="M247 411c-2 0-4-1-6-2-1-1-2-2-2-2 0 0-3-1-7-3-11-7-21-13-24-14-3-2-10-6-12-7 0 0-1-1-1-1-1 0-4-2-7-4-3-1-5-3-6-3 0-1-2-1-3-2 0 0-2-1-2-1-1-1-8-5-10-6-1-1-2-1-2-1 0 0-5-3-9-6-5-2-9-5-9-5 0 0-3-1-6-3-3-2-6-3-6-3 0 0-3-2-7-4-8-5-12-9-14-15l-2-4 0-148 2-4c3-6 7-10 17-16 2-1 7-4 10-6 3-2 6-3 6-3 0 0 2-1 4-3 3-1 6-2 7-3 1-1 3-1 3-2 1 0 4-1 6-2 11-3 24-3 33 2 4 2 11 8 13 12 1 3 3 8 4 12 0 3 0 24 0 74 0 70 0 71-1 72-1 1-2 1-9 1-7 0-9 0-10-1l-1-1 0-139-2-3c-1-3-4-6-7-8-2-1-3-1-8-1-7 0-9 1-19 7-3 2-6 3-6 3-1 0-20 13-21 13 0 1 0 25 0 70l0 69 1 2c1 1 2 2 4 3 1 0 3 1 3 2 2 1 13 7 13 7 0 0 14 8 16 9 0 0 1 1 1 1 1 0 4 2 6 4 3 1 6 3 7 3 0 0 1 1 2 2 1 0 2 1 3 1 1 1 9 5 10 6 1 0 1 1 2 1 0 0 3 2 6 4 3 1 6 3 6 3 1 0 2 1 3 2 1 0 2 1 2 1 1 1 4 2 7 4 3 2 6 3 6 3 0 0 13 8 15 9 1 1 3 2 5 3l4 2 2-1c1-1 5-2 8-4 3-2 5-4 5-4 1 0 4-2 8-4 4-2 7-4 7-4 0 0 4-2 8-4 3-3 7-5 7-5 1 0 2-1 2-1 1 0 3-2 5-3 3-1 5-2 6-3 0 0 1-1 2-1 0 0 4-2 8-5 3-2 7-4 7-4 0 0 11-6 12-7 1 0 2-1 2-1 1 0 5-3 9-5 5-3 9-5 9-5 0 0 7-5 10-6 1-1 1-1 2-1 3-2 3 3 3-73l0-70-1-1c-1-1-3-2-4-3-2-1-4-2-4-2-1-1-2-1-3-1 0-1-2-2-4-3-2-1-4-3-5-3 0 0-1-1-2-1 0 0-3-2-5-3-2-1-4-2-5-3 0 0-2-1-4-2-1-1-4-2-6-3-2-2-4-3-4-3-1 0-2-1-2-1-1 0-4-2-7-4-3-2-7-4-7-4 0 0-1-1-2-1 0 0-2-2-5-3-2-1-4-2-4-3-1 0-2 0-2-1-1 0-4-2-7-3-3-2-6-4-6-4-1-1-2-1-2-1-1-1-4-2-7-4-3-2-5-3-6-4 0 0-2-1-3-1-1-1-3-2-4-3-2-1-4-2-6-3-5-3-5-3-9-1-2 1-4 3-4 3-7 4-24 14-26 14 0 0-4-1-8-3-4-2-7-4-8-4-1 0-5-2-5-2 0-1 3-4 6-5 1-1 3-2 4-3 1-1 2-1 3-1 1-1 20-12 21-13 1 0 2-1 2-1 1-1 3-2 4-3 6-3 8-4 14-4 6 0 9 0 14 3 1 1 3 2 3 2 1 0 2 1 3 2 1 0 2 1 3 1 0 1 3 2 6 4 3 2 6 3 6 3 0 0 2 2 6 4 3 1 5 3 6 3 0 0 1 1 2 1 1 1 3 2 5 3 2 2 5 3 5 3 1 1 2 1 2 1 1 1 4 2 7 4 3 2 5 3 5 3 1 0 4 2 8 5 4 2 7 4 7 4 0 0 4 2 8 4 4 3 7 4 7 4 0 0 3 2 6 4 3 2 6 3 6 3 0 0 2 1 4 2 2 2 5 4 7 5 3 1 5 2 5 3 1 0 1 1 2 1 0 0 5 4 6 6 2 3 4 6 5 9 0 2 0 26 0 74 0 75 0 74-2 79-3 6-6 9-15 14-4 2-15 8-16 9 0 1-1 1-1 1-1 0-4 2-7 4-3 2-6 3-6 3 0 0-4 3-9 5-4 3-8 5-8 5 0 0-3 2-6 4-3 2-6 3-6 3 0 0-4 3-9 5-5 3-9 6-9 6 0 0-3 1-5 3-3 1-6 3-7 3 0 1-1 1-2 2 0 0-4 2-8 4-4 3-8 5-8 5-1 0-4 2-7 3-5 3-5 3-11 3-5 0-7 0-9-1z m32-96c-1 0-4-1-7-1-17-3-30-10-35-21-3-6-4-9-4-16 0-11 3-18 10-24 8-7 21-10 47-13 12-1 22-3 28-5 7-3 9-6 9-12 0-8-4-13-12-16-13-4-41-4-53 2-5 3-9 9-10 15-1 3-2 6-3 6-2 1-16 1-18 0-2-1-2-3-2-9 2-8 3-12 8-18 7-10 20-16 38-18 7-1 25-1 32 0 5 1 14 2 16 3 11 5 16 8 21 15 4 5 6 13 6 22 0 22-12 31-52 36-27 4-37 6-40 11-1 1-1 2-1 6 0 5 0 5 2 8 3 3 5 5 10 6 9 3 29 3 38 0 4-1 8-4 11-6 2-3 6-10 6-12 0-1 0-2 1-3 1-1 2-1 10-1 8 0 8 0 10 1 1 1 1 2 1 5-2 13-8 23-17 29-7 5-14 7-25 9-6 1-22 1-25 1z"/>
<glyph glyph-name="iyehfn302o" unicode="&#109;" d="M314 467c0 0 2-3 5-7 2-4 5-7 5-8 1-1 2-3 2-4 1 0 2-2 3-5 1-2 3-4 3-5 1-2 10-19 12-23 1-4 3-7 5-13 1-1 1-3 2-3 0-1 0-1 0-2 0 0 0-1 1-2 0-1 1-4 2-5 0-2 1-4 1-5 1-2 1-4 2-6 0-2 1-4 2-5 0-2 2-7 2-11 0-1 1-3 1-4 2-5 4-18 5-30 1-9 1-28 1-35-1-4-1-9-1-11-1-7-3-18-6-28 0-4-1-7-1-8-1-2-1-4-3-8 0-1-1-3-1-4-1-2-2-2-5 0-2 2-17 13-19 14-6 4-61 46-73 56-5 4-12 9-15 11-6 4-11 9-18 15-2 1-6 4-10 7-6 5-9 7-10 8 0 1-2 2-3 3-4 3-27 23-28 23 0 0-2 2-4 4-3 3-16 14-18 16-1 0-3 2-6 5-3 3-8 7-10 9-2 2-4 4-5 4 0 1-3 4-6 7-4 3-7 5-7 5 0 0 0-1 1-1 0 0 1-1 1-1 0-1 1-3 3-5 2-3 3-5 3-5 0 0 2-2 3-4 4-5 13-18 16-22 8-11 54-73 59-78 0-1 2-3 3-5 2-2 3-4 4-4 0-1 1-2 2-3 7-9 19-22 28-32 3-3 6-6 6-6-2 0-11 6-27 16-3 2-6 4-7 4 0 1-3 3-4 3 0 0 0 1-1 1 0 0-2 2-4 3-11 8-17 12-26 18-5 4-10 8-11 9-1 1-3 2-4 3-2 1-7 5-12 9-5 4-10 8-11 9-5 3-12 8-12 9-1 0-3 2-5 3-2 2-3 3-3 3-1 1-2 2-5 4-2 2-4 3-4 4-1 0-3 2-5 3-2 2-4 3-4 4-1 0-3 2-5 4-2 1-6 5-9 7-3 3-8 6-10 8-2 2-4 4-4 4-2 2-15 12-17 13-1 1-1 2-2 2 0-1 6-8 7-10 1 0 3-3 5-5 2-3 5-7 7-9 4-6 9-12 12-15 1-2 3-4 4-5 1-2 3-4 4-5 1-2 4-6 7-9 2-3 5-7 7-8 1-2 5-7 9-11 4-5 7-10 8-10 1-2 5-6 14-16 1-2 14-17 17-20 6-7 21-24 30-34 9-10 12-12 17-18 20-20 38-38 53-50 1-1 2-3 3-4 4-3 18-13 22-16 2-1 4-2 4-3 0-1-6-4-16-8-9-4-10-5-12-5-1-1-3-1-6-2-6-2-9-3-20-6-4-1-10-2-13-2-1-1-5-1-8-1-20-3-47-3-70 1-3 1-6 1-7 1-1 1-3 1-5 1-1 1-4 1-6 2-7 1-15 4-19 5-1 0-3 1-5 2-4 0-6 1-10 3-2 0-4 1-5 2-13 4-32 13-45 20-2 1-4 3-6 3-1 1-3 2-4 3-2 1-3 2-3 2 0 0-1 0-3 1-1 1-3 2-3 3-1 0-3 1-5 3-5 3-7 3-6 1 2-4 14-20 18-24 1-2 3-5 5-7 2-2 4-4 4-5 1-1 4-4 6-7 7-7 22-22 32-30 9-8 24-20 33-26 6-3 18-11 20-12 0 0 2-1 3-1 2-2 16-9 20-11 2-1 5-2 7-3 2-1 4-2 5-2 0 0 2 0 3-1 5-2 21-8 28-10 2 0 5-1 6-2 2 0 3 0 4 0 0 0 2-1 4-1 6-2 20-5 39-7 12-2 51-2 60 0 11 2 20 3 26 5 6 2 19 6 21 7 0 0 1 1 3 1 6 3 10 5 19 10 24 12 26 13 39 16 5 2 22 2 28 0 9-2 16-5 24-10 8-6 18-15 24-24 5-6 5-6 6-5 0 1 1 2 1 3 0 1 1 2 1 2 0 1 0 2 1 4 1 5 2 14 2 20 0 6-1 17-2 23-3 9-3 10-4 12 0 1-1 2-1 3 0 0 0 1 0 2-1 1-2 4-3 7-3 6-7 14-9 19-2 2-3 4-3 5 0 0-1 1-2 2 0 1-1 3-1 3-1 1-2 3-7 10-2 3-6 9-8 11-3 3-3 3-2 5 1 3 3 8 4 11 2 8 2 11 3 16 1 3 1 7 2 9 1 11 1 41 0 53-3 16-4 22-7 33-2 7-3 9-3 11-1 1-1 2-1 3 0 0-5 12-6 15-10 23-24 46-38 64-4 6-8 11-10 13-15 16-22 24-32 33-3 2-5 5-7 6-1 1-4 3-6 5-2 2-4 4-5 4-1 1-3 3-6 5-2 2-4 4-5 4 0 1-17 14-23 18-3 2-5 3-5 2z"/>
<glyph glyph-name="php" unicode="&#110;" d="M39 327l73 0c21 0 36-6 46-18 10-13 13-29 9-50-1-10-4-19-8-28-4-10-10-18-17-25-9-10-19-16-29-18-11-3-21-4-32-4l-33 0-10-52-38 0 39 195m32-31l-17-81c1 0 2-1 4-1 1 0 2 0 3 0 18 0 32 2 44 6 11 3 19 17 23 39 3 19 0 30-10 33-9 3-21 4-36 4-2 0-4 0-6 0-2 0-4 0-6 0l1 0m139 83l38 0-11-52 34 0c18 0 32-4 41-11 9-8 12-21 8-42l-18-90-38 0 17 86c2 9 2 16-1 20-3 3-9 5-19 5l-30 1-22-112-38 0 39 195m151-52l72 0c22 0 37-6 47-18 9-13 12-29 9-50-1-10-4-19-8-28-4-10-10-18-18-25-9-10-18-16-29-18-10-3-21-4-32-4l-32 0-11-52-37 0 39 195m31-31l-16-81c1 0 2-1 3-1 1 0 3 0 4 0 17 0 32 2 43 6 12 3 20 17 24 39 3 19 0 30-10 33-10 3-22 4-36 4-2 0-4 0-6 0-2 0-4 0-6 0l0 0"/>
<glyph glyph-name="ei3utn44hp" unicode="&#111;" d="M307 509c0-1 1-4 1-6 0-2 1-7 1-12 0-8 0-9-1-15 0-4-1-7-1-8 0 0-1-1-1-2-2-7-6-16-12-24-7-10-21-24-34-34-1-1-2-2-2-2 0 0-6-5-12-10-8-6-18-15-20-16 0 0-2-2-4-3-6-5-18-18-23-24-5-8-8-13-10-20 0-3 0-5 0-10 0-6 0-7 2-14 1-2 4-9 6-13 9-15 23-32 51-58 5-5 6-5 7-5 0 0-1 3-3 6-1 1-1 2-1 2-1 1-7 10-11 17-17 23-21 31-24 44-1 3-1 5-1 11 0 7 1 11 3 17 0 1 1 2 1 3 0 1 4 8 6 11 3 4 5 7 9 11 7 8 10 12 19 19 14 11 17 13 22 19 8 6 16 15 20 20 1 1 1 3 2 3 1 1 9 13 9 13 0 0 0 1 1 1 0 1 5 9 6 13 3 7 4 10 6 20 1 5 1 16 0 20-2 10-4 16-9 23-2 3-3 4-3 3z m56-104c0-1-3-1-6-2-2-1-6-2-9-3-2-1-4-2-5-2-3-1-9-4-12-5-1-1-3-2-5-2-3-1-12-6-17-9-23-12-39-27-47-42-2-4-3-9-4-12 0-1-1-3-1-3 0-2 0-15 1-18 1-6 3-13 4-15 1 0 1-2 2-4 3-5 8-12 13-19 5-6 9-12 9-13 0 0 0-1 1-1 2-4 2-13 1-19-2-5-6-14-9-17-1 0-2-2-2-2-2-2-2-2-1-2 1 0 1 0 1 0 0 1 0 1 1 1 0 0 12 8 13 9 0 0 2 2 4 3 6 6 12 13 15 20 1 1 1 3 2 3 0 1 0 2 1 4 1 4 1 13 0 17-2 6-4 10-11 20-4 5-8 11-10 14-1 3-5 10-5 11 0 0 0 1-1 2 0 2 0 3 0 8 0 7 0 8 3 14 5 11 19 25 42 41 7 5 8 6 9 6 0 0 1 1 2 1 2 1 3 2 4 3 2 1 10 6 13 8 1 1 3 2 3 2 0 0 6 3 5 3 0 1-2 0-4 0z m34-170c-1 0-2-1-4-1-3-1-5-1-10-2-2-1-6-3-7-5-1-1-1-1 0-1 0 0 1 0 1 0 6 2 11 2 14 2 9 0 20-5 26-12 2-3 4-7 5-10 1-3 1-12 0-15-1-3-4-9-5-11 0-1-1-2-1-2 0 0-1-2-3-4-7-10-20-21-35-30-4-2-7-4-9-5-4-2-5-3-5-4 0 0 1 0 4 1 1 0 5 1 8 2 7 2 11 4 14 5 0 0 2 1 3 2 6 2 14 6 20 10 8 5 16 12 21 18 3 3 6 9 6 10 0 0 0 1 1 1 0 0 1 5 2 8 3 15-5 30-20 38-2 1-8 3-12 4-3 0-14 1-14 1z m-218-6c-7-1-12-2-17-3-3-1-6-1-7-1-1-1-2-1-3-1 0 0-2-1-4-1-4-1-9-3-13-5-1 0-3-1-3-1-1 0-4-1-6-2-14-6-18-9-18-13 0-2 5-6 10-8 5-1 8-2 9-2 0 0 2 0 3-1 6-1 20-3 41-5 13-1 67-1 82 0 18 1 35 3 41 4 2 0 4 1 5 1 1 0 3 0 5 0 2 0 5 1 7 1 11 2 15 3 26 6 3 0 5 1 9 3 2 2 7 4 9 5 2 2 5 3 5 3 0 0 1 1 2 1 0 0 0 0 0 0-1 0-2 0-4 0-3-1-9-2-16-2-2-1-6-1-8-2-15-2-27-3-38-4-2 0-5-1-7-1-2 0-4 0-6 0-1 0-6-1-9-1-27-3-82-3-103-1-9 1-19 3-23 5-3 2-4 4-2 6 2 2 7 5 11 7 2 1 4 2 5 2 2 1 3 1 8 3 3 1 5 2 6 2 3 1 13 4 18 5 0 0 1 0 1 0-1 1-11 1-16 0z m-9-60c-9-3-16-7-19-10-8-9 3-18 29-23 1-1 4-1 6-2 1 0 3 0 4 0 0 0 2-1 4-1 17-3 65-3 86 0 2 0 5 1 6 1 1 0 3 0 5 0 1 1 5 1 8 2 9 1 29 5 36 7 1 0 3 1 5 1 1 1 3 1 3 1 0 0 1 1 1 1-1 0-1 1-6 3-4 2-8 4-11 7l-3 3-3-1c-2 0-4-1-6-1-2-1-5-1-15-3-14-2-18-2-24-3-2 0-6 0-9 0-14-2-36-2-55-1-12 1-27 2-31 3-1 0-2 1-3 1-2 0-6 2-7 4-3 2-2 6 1 10 1 1 2 2 2 2 0 1-3 0-4-1z m10-56c-12-5-17-10-16-16 1-3 5-7 10-10 1 0 2-1 2-1 1-1 10-4 16-6 6-2 18-4 29-5 8-1 40-1 47 0 2 0 5 0 6 0 4 1 16 3 23 4 3 1 5 1 6 1 0 1 2 1 3 1 1 1 3 1 4 1 11 3 25 8 25 9 0 1-1 1-2 2-1 0-3 1-3 1-1 0-2 1-3 2-4 1-10 4-13 6-2 1-4 2-5 2-1 1-3 1-7 0-6-1-22-4-33-5-1 0-8-1-14-1-11 0-28 0-38 1-16 2-22 3-27 4-4 1-7 4-7 6 0 1 2 4 2 5 1 0 1 1 0 1-1 0-3-1-5-2z m-53-35c-7-1-10-1-18-4-3 0-5-1-6-1-1 0-6-2-8-3-7-3-10-4-11-5-1 0-2-1-3-2-6-2-11-7-13-10-1-3-1-7 1-9 3-2 9-5 14-6 5-1 14-3 18-4 3 0 7-1 9-1 9-1 34-4 55-6 34-3 93-3 126 0 3 0 7 0 10 0 10 1 35 5 44 6 2 0 5 1 7 1 8 2 14 3 18 4 1 1 3 1 5 2 8 1 19 5 24 7 1 0 2 1 4 2 5 2 12 6 15 9 0 0 1 1 2 2 2 3 2 6 0 8-2 3-6 6-6 5 0 0 0-1 0-2 1-1 1-2 1-3 0-7-8-12-28-17-2 0-14-3-16-3 0 0-3-1-5-1-5-1-12-2-18-2-3-1-8-1-10-2-3 0-6 0-7 0-1 0-4-1-7-1-14-2-45-3-81-4-27 0-74 2-89 4-2 0-5 1-6 1-1 0-3 0-5 0-2 1-5 1-7 2-9 1-12 2-19 3-3 1-11 4-12 4 0 0-1 1-2 1-2 1-4 3-4 5 0 1 1 3 4 5 3 2 7 4 10 5 6 2 9 3 10 4 1 0 2 0 4 1 4 1 12 3 15 3 2 0 4 0 4 0l2 0-2 1c0 0-2 1-3 1-3 1-11 1-16 0z m314-33c-1-1-4-3-5-4-3-2-13-7-14-7 0 0-1 0-1-1 0 0-1 0-2 0 0-1-3-2-5-2-3-1-5-2-6-2 0 0-2-1-3-1-5-2-8-3-10-3-1 0-2-1-3-1 0 0-1 0-2 0 0 0-2-1-3-1-1 0-3-1-5-1-13-3-18-4-22-5-9-1-14-2-17-2-2 0-4-1-6-1-5-1-13-2-21-2-4-1-10-1-13-2-4 0-8 0-10 0-1 0-6-1-10-1-12-1-74-1-89 0-28 2-41 3-52 5-3 1-5 1-5 0 0 0 1-1 5-2 13-5 35-8 61-10 22-2 61-2 81-2 14 1 39 2 46 3 16 2 35 4 44 6 2 0 5 1 7 1 5 2 12 3 15 4 11 3 12 4 16 5 1 1 1 1 2 1 0 0 10 4 12 6 8 5 13 10 16 15 1 3 2 5 1 5 0 0-1 0-2-1z"/>
<glyph glyph-name="c0okh2d5sl" unicode="&#112;" d="M423 358c-1-1-3-1-4-1-2 0-8-2-14-4-5-3-6-3-11-6-9-6-17-15-22-27-1-2-3-5-3-6-1-1-1-2-1-2 0-1 0-2-1-2 0-1-1-2-1-3 0-1 0-3-1-4-1-3-2-5-2-8-1-3-2-6-3-11-1 0-1-2-2-4 0-2-1-4-1-5-1-1-1-3-2-5 0-2-1-4-1-5-1-2-2-4-2-6-1-2-2-5-2-6 0-1-1-4-2-5 0-2-1-5-1-6-1-1-1-4-2-6-1-2-1-4-1-4-1-1-1-3-2-5 0-2-1-5-2-6-1-3 0-6 1-5 0 0 1 0 2 0 1 0 2 0 2 1 0 0 2 0 2 0 0-1 0-1-1-2 0 0-1-1-1-1 0-1 0-1-9-10-5-7-7-7-7-3 0 1-1 2-1 3 0 1-1 3-1 3 0 1 0 2 0 3-1 0-1 2-2 3 0 2-1 5-2 12-1 1-1 4-2 5 0 1-1 3-1 4 0 3-1 6-2 10 0 1-1 3-1 4-1 3-2 7-3 10 0 1 0 3-1 4 0 3-1 7-2 9 0 1-1 3-1 4 0 1 0 2-1 3 0 0 0 1-1 3 0 1 0 3-1 4-1 4-2 6-2 7-1 3-2 6-3 8 0 0 0 2 0 2 0 1-1 2-1 3-1 0-2 3-2 4-2 3-6 13-7 15-2 3-5 7-6 8 0 0 0 1 0 1 0 1-6 6-8 8-2 1-2 1-2 0-1 0-1 0-2 0 0 0-3 0-6 0l-6 0-3 2c-1 1-2 2-3 2 0 0-1 1-3 2-1 1-2 2-2 2-1 0-2 1-3 1-1 1-3 2-3 2-1 0-2 1-3 1-4 2-7 2-58 2-50 0-53 0-58-2-1-1-2-1-2-1 0 0-1 0-2-1 0 0-3-1-5-2-3-2-5-3-5-3 0 0-3-2-5-3-15-10-33-30-49-53-2-3-4-6-4-6 0 0-1-1-2-3-1-1-1-2-1-3 0 0-1-1-2-2-1-2-2-4-3-5-1-1-2-4-3-6-1-2-3-5-4-8-3-4-3-5-4-7-1-1-1-2-1-2 0-1-2-3-3-6-2-3-3-7-3-8-1 0-2-3-3-4 0-2-2-5-2-7-1-1-2-4-2-4-1-2-2-5-4-10 0-1-1-3-1-4-1-1-1-2-1-3 0 0 0-1-1-1 0-1-3-9-5-15 0-2-1-4-1-6-1-1-1-3-1-4 0-2 0-3-1-3 0 0 0-1 0-1 0-1 0-1 0 0 1 0 2 1 3 1 1 0 2 0 3 1 1 1 2 1 2-1 0 0-1-1-1-1 0 0 0 0 0-1 0-1-1-1-1-2-1 0-1-1-1-1 0-1-1-2-1-2 0-1-1-1-1-2 0 0 0-1-1-2 0 0-1-1-1-1 0-1 0-2 0-2-1 0-1-1-1-2 0 0-1-1-1-1-3-2-1-2 27-2 23 0 28 0 30 1 2 0 4 1 5 1 1 0 3 0 4 0 0 1 2 1 3 1 0 0 1 1 1 1 0 0 1 1 2 1 2 0 5 2 11 4 1 1 2 2 2 2 0 0 1 1 3 2 5 3 11 9 17 17 1 3 7 14 7 15 0 1 1 2 1 2 1 1 1 2 1 2 0 1 0 2 1 3 0 1 1 2 1 3 0 0 0 2 0 3 1 1 1 2 1 3 1 1 1 2 1 3 2 5 2 6 3 8 0 1 1 2 1 3 0 0 0 1 0 2 0 1 1 2 1 3 1 1 1 2 1 3 0 0 0 1 1 2 0 1 1 2 1 3 0 1 1 3 1 4 1 4 2 6 3 8 0 2 1 5 1 6 1 2 1 4 2 5 0 1 0 3 1 3 2 5 4 8 5 10 2 1 3 3 3 3 0 0 1 2 2 3 2 2 4 5 6 7 1 2 3 4 3 4 1 1 3 3 5 5 6 7 13 15 14 15 1 0 1-1 1-2 1-1 1-2 2-3 0-1 0-3 0-4 0 0 1-1 1-2 1-1 1-3 1-3 0-1 0-3 1-3 0-1 1-3 1-4 0-1 0-2 0-2 1-1 1-3 1-4 1-3 1-4 3-11 2-6 2-8 3-10 0-2 0-3 0-4 1 0 1-2 1-3 1-4 2-7 3-11 0-1 1-3 1-4 0-1 0-2 1-3 0-1 0-2 0-3 0 0 1-2 1-4 3-7 3-8 3-9 0 0 0-2 1-2 0-1 1-3 1-3 0-1 0-2 0-2 0 0 1-2 1-3 1-2 2-5 3-8 0-1 1-3 1-4 4-9 9-19 14-26 4-5 13-14 15-14 0 0 1 0 1-1 1 0 2-1 2-1 1 0 1 0 2 0 0-1 1-1 2-1 1 0 2-1 3-1 2-1 6-1 62-1 55 0 59 0 61 1 1 0 2 1 3 1 0 0 1 0 2 1 1 0 3 1 4 1 1 1 3 2 3 2 0 0 1 1 2 1 1 1 2 1 2 2 1 0 2 1 4 2 3 2 18 17 21 21 1 2 2 3 3 3 0 1 2 3 4 6 2 2 4 5 4 5 2 2 8 10 8 11 0 0 2 4 4 6 0 0 1 2 2 3 1 1 1 2 1 2 1 0 1 1 1 1 1 2 2 3 4 7 2 2 3 4 3 4 0 1 5 8 9 15 5 8 9 15 9 16 1 1 2 2 2 3 1 1 2 3 3 5 3 5 3 5 4 7 1 1 2 3 3 4 0 2 2 4 2 5 1 1 2 3 3 4 1 3 4 8 6 11 3 7 5 10 9 18 5 10 6 12 4 11 0-1-3-1-8-1-5 0-8 0-8 0-1-1-2 1-1 2 0 1 1 3 1 4 1 4 1 9 2 12 1 2 1 3 0 3 0 0-14 1-30 1-24 0-30 0-32-1z"/>
<glyph glyph-name="open-source" unicode="&#113;" d="M256 504c-141 0-256-115-256-256 0-105 66-201 164-239 4-1 9-1 13 1 4 2 7 5 8 9l48 154c2 7-1 15-7 18-21 12-34 34-34 57 0 35 29 64 64 64 35 0 64-29 64-64 0-23-13-45-34-57-6-3-9-11-7-18l48-154c1-4 4-7 8-9 2-1 5-2 7-2 2 0 4 0 6 1 98 38 164 134 164 239 0 141-115 256-256 256z"/>
<glyph glyph-name="1q3i5vu5sl" unicode="&#114;" d="M248 464c-2-2-5-4-6-4-2-1-4-2-5-3-1-1-7-4-12-7-5-3-11-7-13-8l-4-3 0-53 7-4c4-2 8-5 9-5 1-1 4-3 7-4 4-2 7-4 8-4 7-5 14-8 16-8 1 0 4 1 7 3 3 2 7 4 7 4 1 0 4 2 6 3 1 1 5 3 6 4 2 1 7 4 12 7l8 4 0 55-4 2c-2 1-4 2-5 3-2 1-4 2-6 3-2 2-5 3-6 4-1 0-5 3-9 5-4 2-8 4-9 5-1 1-3 2-3 2-2 2-6 2-11-1z m11-10c2-1 6-3 8-5 2-1 4-2 5-3 2 0 3-2 4-2 0-1 1-1 2-1 3 0 8-5 7-6 0-1-6-5-12-8-1-1-3-2-5-3-2-2-5-3-6-4-1 0-3-1-3-2-1-2-7-2-9 0-1 1-2 2-11 7-12 6-13 7-14 9-2 2 0 4 9 9 8 4 10 5 16 8 2 2 4 3 4 3 0 0 2-1 5-2z m-35-27c2-2 6-4 7-5 2-1 6-3 8-4 3-2 6-4 8-5l3-3 0-17c0-13 0-18-1-18-1-1-3 1-6 2-2 2-6 4-7 4-1 1-4 2-6 4-2 1-4 2-5 3-1 0-3 2-5 3l-3 2 0 17c0 15 0 19 2 19 0 0 2-1 5-2z m68-16c0-12 0-18-1-19-1-1-5-3-9-6-4-2-8-5-9-5-6-4-13-7-13-6-1 1-1 36-1 36 1 1 10 7 13 8 1 1 5 3 8 5 4 2 7 4 7 4 0 1 2 1 3 1 1-1 2-3 2-18z m-177-25c-1-1-3-1-4-2-1 0-4-2-8-4-4-3-8-5-9-6-1 0-4-2-6-3-2-1-6-3-8-5-10-5-10-3-10-32l0-27 7-3c4-2 7-4 8-5 1 0 5-2 8-4 3-2 7-4 9-5 4-2 7-4 11-7 3-2 9-2 10 1 1 0 2 1 4 2 1 0 4 2 5 3 2 1 5 3 7 4 1 0 3 1 3 2 0 0 2 1 4 2 4 2 15 8 16 9 1 1 2 8 2 28 0 30 0 27-11 34-1 0-4 2-6 3-2 1-4 3-5 3-1 1-4 2-7 4-16 9-17 10-20 8z m6-11c2-1 5-3 7-4 8-5 16-9 18-10 2-1 3-2 3-2 0-1-4-5-5-5 0 0-6-3-12-7-6-3-12-7-13-7-2-1-5 0-10 4-2 1-5 2-6 3-1 1-4 2-6 4-2 1-4 2-6 3-1 1-3 2-3 3-1 2-1 3 0 3 1 1 6 3 10 6 5 3 9 5 10 5 1 1 3 2 5 3 2 2 4 3 4 3 0 0 2-1 4-2z m-20-36c1 0 3-1 4-2 1-1 4-2 6-4l3-3 0-16c0-20-1-21-10-15-2 2-5 4-8 5-2 1-7 4-10 6l-5 4 0 17c0 10 0 18 0 19 1 0 14-6 20-11z m53-8l0-18-5-3c-2-2-6-5-9-6-2-1-6-3-8-5-4-3-8-4-9-3-1 0-1 8-1 18l0 17 3 3c2 1 5 3 6 3 1 1 3 2 5 3 2 2 4 3 6 4 1 0 3 2 5 3 2 1 5 2 6 2 1 0 2-1 1-18z m40 52c-4-2-8-5-9-5-2-1-4-2-6-4-2-1-5-3-7-3-2-1-4-3-5-4-1-2-1-2 1-4 3-3 3-3 6-1 2 2 6 3 8 5 2 1 5 3 7 4 2 1 6 4 10 5 6 4 7 5 5 9-2 3-2 3-10-2z m111 2c-2-3 0-6 7-9 2-2 6-4 8-5 2-1 5-3 7-4 3-2 6-3 8-5 4-2 4-2 6 1 2 2 3 2 1 4-1 1-3 3-5 4-2 0-5 2-7 3-2 2-6 4-9 6-3 1-7 4-9 5-4 2-5 2-7 0z m82 0c-1 0-6-3-10-5-4-3-9-6-10-6-2-1-4-2-5-3-1-1-4-2-6-3-1-2-4-3-5-3-5-3-5-3-5-31 0-30-1-27 10-33 9-5 10-6 12-7 0-1 1-1 2-1 1 0 5-2 8-5 4-2 9-5 11-6 3-2 3-2 6 0 2 2 5 3 6 4 2 0 5 2 7 3 1 1 5 3 6 4 2 1 6 3 9 5 4 2 7 4 8 4 1 1 3 2 5 4l3 2 0 26c0 29 0 27-9 32-3 2-7 4-9 5-2 1-4 3-6 3-1 1-5 3-9 6-3 2-7 4-8 4-1 1-3 1-4 2-2 1-4 1-7-1z m10-11c1-1 4-2 5-3 1-1 5-3 9-5 4-2 8-5 9-5 3-1 3-2 2-4-1-1-3-2-4-3-1-1-4-2-6-3-2-2-4-3-5-3-1-1-4-3-7-4-5-4-12-5-13-2 0 0-2 1-3 2-1 0-3 1-4 2-1 1-6 3-11 6-5 3-9 6-9 7 0 0 1 1 3 2 1 0 4 2 6 3 3 2 7 4 9 5 3 2 6 4 7 5 4 2 8 2 12 0z m32-43c0-19-1-19-6-22-1 0-3-2-5-3-2-1-5-2-6-3-1-1-4-3-7-4-9-5-9-5-9 14l0 17 3 3c1 2 4 3 5 4 1 1 4 2 6 3 2 2 4 3 5 4 2 0 5 2 7 4 3 1 5 2 6 2 0 0 1-9 1-19z m-56 10l15-9 0-18c0-20 0-20-9-15-3 2-6 4-7 4-1 1-3 2-5 3-2 1-5 3-6 3 0 1-2 2-4 3-2 3-2 3-2 20 0 16 0 17 2 17 1 0 8-3 16-8z m-121 13c-1-2-1-21 0-22 1 0 2-1 3-1 2 1 2 2 2 12 0 11 0 12-2 12-1 0-3 0-3-1z m-1-30c-1 0-2-1-3-1-1-1-4-2-6-3-2-2-6-4-9-5-3-2-7-4-8-5-2-2-5-3-7-4-2-1-6-4-9-5-3-2-8-5-10-6-7-3-7-3-7-40 0-30 0-34 2-36 2-2 7-5 13-9 2-1 6-3 10-5 3-2 6-4 8-4 1-1 5-3 9-6 3-2 10-5 14-7l7-4 7 4c4 2 10 5 14 8 3 2 8 4 9 5 1 0 5 2 8 4 3 2 7 4 9 5 7 4 11 7 13 9 2 2 2 6 2 36 0 37 0 37-7 40-2 1-7 4-10 6-4 2-8 5-10 5-1 1-3 2-5 4-2 1-6 3-9 5-3 1-7 3-9 5-2 1-5 2-6 3 0 0-2 1-3 2-3 1-4 1-7-1z m9-16c0 0 2-1 3-2 1 0 3-2 5-2 1-1 6-4 10-6 4-3 9-5 10-6 1-1 4-2 5-3 4-2 4-4-1-7-2-1-5-3-6-3 0-1-3-2-5-3-1-2-4-3-5-4-2-1-6-3-9-5-4-2-8-5-10-5-3-1-5-1-14 5-4 2-8 4-9 5-2 1-4 2-6 4-2 1-4 2-5 3-1 0-4 2-6 3-5 3-5 5-1 7 2 1 4 2 5 3 7 4 17 10 25 14 1 1 3 2 4 3 0 1 9 1 10-1z m-48-32c1-1 4-3 6-4 2-1 4-3 5-3 2-1 6-3 9-5 4-3 8-5 10-5 1-1 3-3 5-4l3-3 0-23c0-13 0-24 0-25 0-1-4 0-9 3-3 1-6 3-7 4-2 0-4 2-6 3-2 1-5 3-6 4-1 0-4 2-5 3-2 1-5 3-7 4l-3 1 0 25c0 15 0 26 1 26 0 0 2-1 4-1z m90-25l0-25-3-1c-2-1-4-3-6-4-2-1-4-3-5-3-1-1-7-4-13-7-11-7-16-9-16-7 0 1 0 12 0 25l0 23 3 3c2 1 4 3 6 4 1 0 5 2 8 4 3 2 7 4 9 5 2 1 5 3 7 4 4 3 7 5 9 5 1 0 1-6 1-26z m-133 56c-1-1-2-2-2-3 0-2 7-8 9-8 1 0 3-1 3-2 2 0 4-2 6-2 3-1 4 0 4 2 1 4 0 5-2 5-1 0-3 1-3 1-2 2-12 7-13 7-1 0-2 0-2 0z m163-3c-3-1-6-3-6-3-1-1-2-2-3-2-3 0-4-1-3-5 1-2 1-3 4-2 2 0 5 2 6 2 1 1 2 2 3 2 2 0 9 7 9 9 0 1-2 2-4 2-1 0-3-1-6-3z m-215-28c-2-1-2-2-2-21 0-20 0-20 2-21 2 0 3 0 4 1 1 1 0 41-1 41-1 0-2 0-3 0z m272 0c-1-1-1-8-1-22l0-20 3 0c2 1 3 1 3 1 0 0 1 9 1 20l1 20-3 1c-2 0-4 0-4 0z m-277-49c-3-3-6-5-10-6-2-1-6-4-9-6-3-2-7-3-8-4-1 0-4-2-8-4l-7-4 0-26c0-30 0-28 10-33 2-2 6-4 8-5 2-1 5-3 6-3 1-1 5-3 9-5 4-3 7-5 8-5 1 0 3-1 5-2 3-1 3-1 16 7 5 2 9 5 10 5 1 1 3 2 5 3 2 1 5 3 6 4 11 6 11 3 11 33l0 27-3 2c-2 1-4 2-5 2-1 0-3 2-6 3-2 2-5 4-6 4-1 1-4 2-6 4-2 1-4 2-6 3-1 1-3 2-5 3-8 5-11 6-15 3z m12-12c3-2 6-4 8-5 1 0 5-3 8-4 10-5 11-7 6-9-1-1-4-2-6-3-1-2-4-3-5-4-2 0-4-2-6-3-5-4-11-6-13-5-1 0-7 4-14 8-7 4-13 7-13 7-1 0-1 1-1 2 0 2 8 8 17 12 0 1 3 2 6 4 6 3 7 3 13 0z m-36-26c2-2 7-4 9-6 3-2 6-3 6-3 1 0 8-5 9-7 2-2 2-35 1-36-1 0-5 2-9 4-4 2-8 4-9 5-1 1-4 2-6 3-2 2-4 3-6 4-2 1-2 1-2 20 0 11 0 18 1 18 0 0 3-1 6-2z m67-16l0-17-3-3c-2-1-5-3-6-4-1 0-4-2-7-3-13-8-15-9-16-9-1 1-1 9-1 19 0 18 0 19 5 21 1 0 4 2 5 3 2 1 5 3 6 3 1 1 4 3 7 4 2 2 6 3 7 3 3 0 3 0 3-17z m230 52c-3-2-7-4-8-4-1-1-4-2-6-3-2-2-6-4-9-6-6-3-8-4-13-7l-3-2 0-27c0-30-1-27 10-33 2-1 4-3 6-4 2-1 4-2 5-3 1 0 6-3 10-5 13-8 14-8 17-7 1 1 3 2 4 2 1 0 5 2 8 5 4 2 8 4 9 5 2 0 4 2 6 3 2 1 6 3 9 5 9 5 9 3 9 33l0 26-3 2c-2 1-6 3-9 4-2 2-7 4-10 6-3 2-8 5-9 6-4 1-7 3-11 6-4 3-6 2-12-2z m11-8c1-1 3-3 6-4 3-2 6-3 7-4 1-1 2-2 3-2 0 0 3-1 5-3 5-3 6-6 3-7-1-1-4-2-6-3-1-2-4-3-5-4-2 0-6-3-10-5-7-4-7-4-10-2-2 1-5 2-6 3-6 4-19 11-20 11-1 0-2 1-1 3 0 1 2 3 6 5 3 2 7 4 9 6 3 1 6 2 7 3 1 1 3 2 3 2 1 2 8 2 9 1z m32-45c1-18 1-18-2-19-1-1-4-2-6-4-2-1-4-2-6-3-1-1-5-3-9-5-4-2-8-4-8-4-2 1-2 34 0 36 2 2 8 7 10 7 0 0 2 2 5 3 3 2 6 4 6 4 1 0 3 1 5 2 1 1 3 2 4 2 1 0 1-7 1-19z m-67 17c0-1 2-2 3-2 3-1 11-6 18-11l6-3 0-17c0-10-1-18-1-19-1 0-4 1-17 9-2 1-5 3-6 3-1 0-4 2-6 4l-3 2 0 35 2 0c2 0 4 0 4-1z m-183 26c-6-3-7-4-10-5-3 0-3-2 0-5 3-2 6-2 8 1 1 1 2 1 3 1 2 0 3 1 4 2 0 0 2 2 4 2 1 1 2 2 2 4 0 4-4 4-11 0z m142 2c-1-3 0-5 3-6 2-1 3-2 4-2 0-1 1-2 2-2 1 0 3-1 5-2 4-3 7-2 8 1 0 2-7 8-9 8-1 0-2 1-3 2-3 2-9 3-10 1z m-68-40c-1 0-1-6-1-11 1-10 1-10 4-10 2 0 2 0 2 11 0 11 0 11-2 12-1 0-3-1-3-2z m-84-30c-2-2-2-2 0-5 2-1 4-2 5-3 2-1 4-2 7-3 5-4 14-9 19-11 3-2 4-2 5 0 2 3 0 6-9 11-1 0-4 2-6 3-2 1-4 3-6 3-1 1-4 3-7 5-5 3-6 3-8 0z m83 1c-1 0-2-1-4-2-1-1-5-3-9-5-4-2-8-5-9-5-1-1-4-2-6-4-1-1-4-2-6-3-1-1-4-2-6-4l-3-2 0-27 1-27 3-2c2-1 4-2 6-3 1-1 4-2 5-3 2-2 5-3 6-4 1 0 5-3 9-5 4-2 8-4 9-5 2-1 3-2 4-2 1-2 7-2 8 0 0 0 2 1 3 2 1 1 5 3 9 5 4 2 8 5 9 5 1 1 4 2 6 4 2 1 4 2 6 3 1 1 3 2 5 3l4 2 0 27 0 27-3 2c-2 2-4 3-6 4-1 1-4 2-6 3-2 2-5 3-6 4-1 0-5 3-9 5-4 2-8 4-9 5-1 1-3 2-3 2-1 1-3 1-4 1-2 0-4 0-4-1z m8-10c0-1 2-2 3-2 1-1 3-2 4-3 1 0 6-3 10-6 5-2 9-5 9-6 0-2-9-8-19-13-1 0-3-2-5-3-2-1-5-2-6-2-1 0-8 3-15 8-8 4-14 8-15 8-1 0-1 1-1 2 0 1 4 4 9 6 5 3 9 6 10 6 1 1 3 2 4 3 2 0 3 1 4 2 0 1 2 1 4 1 1 0 3 0 4-1z m-33-28c3-2 6-4 8-5 1-1 3-2 5-3 2-2 5-3 6-4 5-2 5-4 5-21 1-13 0-18-1-18-1-1-6 2-12 6-6 3-11 6-12 6 0 0-2 1-4 3l-4 4 0 17c0 15 0 18 2 18 1 0 4-2 7-3z m66-16l0-18-6-4c-10-6-10-7-13-8-1 0-4-2-7-4-8-5-8-4-8 15 0 9 1 17 1 18 1 2 13 10 23 15 2 1 4 2 4 3 0 0 2 1 3 1 2-1 3-1 3-18z m44 54c0 0-3-2-7-4-3-1-7-4-9-5-2-1-4-3-6-3-9-5-11-8-9-11 2-2 2-2 6 0 4 2 13 7 19 11 2 1 5 2 6 3 1 1 3 2 5 3 3 3 3 3 1 5-3 2-5 3-6 1z"/>
<glyph glyph-name="brubvvwevq" unicode="&#115;" d="M281 510c-1 0-12-13-27-28-14-14-26-27-27-29-2-5 0-8 22-30 12-12 23-23 24-25 2-2 2-4 2-19 0-10 0-18-1-19-1-2-7-2-41-3-36 0-41 0-43-2-4-3-7-11-7-20l0-8-21 0-22 0 0 3c0 2 0 7-1 13l-1 10-4 2c-4 2-7 2-38 2l-33 0-3-2-3-3-1-27c0-14 0-31 0-37 1-10 2-11 5-12 2-1 8-2 14-3 5 0 10-1 11-1 0 0 1-22 1-48 1-43 1-47 3-50l2-4 32-1c17 0 39 0 48 0 12 0 17 0 18-1 0-1-2-5-5-8-6-8-7-11-3-15 5-6 11-4 21 5 4 4 8 7 8 7 1 0 2-1 3-3 4-5 21-21 26-24 3-1 6-3 7-3 6-4 9-5 11-5 3 0 13-3 16-5 2-1 2-28-1-31-1-1-5-1-23-1-26 0-25 0-27-15-2-15 0-66 3-68 1-1 14-1 59-2 57 0 58 0 60 3 2 2 2 5 2 39l0 37-3 3c-3 2-4 2-25 3-11 0-21 0-22 1-1 0-2 4-2 16 1 8 1 15 1 16 0 0 3 1 5 1 3 1 5 1 5 2 1 1 3 1 5 1 2 0 4 1 5 2 1 1 2 1 3 1 1 0 5 2 7 3 3 2 6 4 8 4 1 1 7 7 14 13l11 12 9-7c9-9 15-10 19-6 3 3 2 12-3 18-4 4-5 7-3 7 0 0 8 0 18 0 10 0 24 1 33 1 14 0 15 0 18 3l3 3 0 278-3 3-3 3-54 1-55 0-24 24c-14 13-25 25-25 26-1 2-8 1-8-1z m22-42c8-9 15-16 15-17 0-1-29-32-32-33-2-1-5 1-19 15-9 9-16 17-16 18 1 2 33 33 34 33 1 0 9-7 18-16z m130-153l0-124-27 0c-29-1-29-1-23 6 6 5 7 10 6 14-2 4-6 5-12 4-3-1-6-3-11-8l-7-6-13 13c-7 7-14 13-15 14-2 0-4 1-5 2-6 3-9 5-11 5-2 0-4 0-5 1-1 1-4 2-6 2-8 0-8 2-8 19 0 15 0 15 2 16 2 0 18 1 36 1 43 1 48 1 49 4 1 4 4 27 4 39 0 5-1 15-2 22-1 20 2 18-45 18-20 0-39 1-41 1l-3 1 0 39 41 41 48 0 48 0z m-314 2c0-14 0-21-1-22-1-1-5-1-20-1-18 0-20 0-21 2 0 1-1 10-1 21 0 15 1 19 2 20 1 0 10 0 21 0l20-1z m246-1c0-14-1-20-1-21-2-1-156-2-158 0-1 1-2 5-1 20 0 11 0 21 1 21 1 1 154 2 157 1 2-1 2-3 2-21z m-182-15c0-6 4-24 4-25 1 0 20-1 42-2 23 0 42-1 44-2 2-1 2-1 2-15 0-8 0-14-1-15-1-2-6-4-10-4-4 0-16-5-24-10-3-2-5-4-6-4-2 0-16-14-19-18-1-3-2-4-3-4-1 0-5 2-8 6-4 3-7 6-9 6-1 1-2 2-2 2 0 1-1 2-3 2-5 0-10-5-10-10 0-3 4-10 8-13 1-1 2-2 2-3 0-1-7-2-41-2l-41 0 0 41c0 46-1 42 11 42 7 0 15 2 18 5 1 1 2 5 2 12 1 5 1 11 2 13l0 2 21 0 20 0z m114-83c9-1 15-3 22-7 5-2 17-14 17-15 0-1 1-3 2-4 2-1 2-4 2-12 0-11 0-11-4-17-2-4-6-8-8-10-5-4-16-10-23-12-7-2-33-2-40 0-16 5-28 15-34 26-6 13-2 26 10 37 9 8 16 11 31 14 10 2 15 2 25 0z m31-156c1-3 1-37-1-39-1-2-5-2-43-2l-41 0-1 20c0 11 0 21 1 22 0 1 9 1 42 1 37 0 42 0 43-2z"/>
<glyph glyph-name="hstkdzktcs" unicode="&#116;" d="M227 497c-2 0-8-1-13-2-4 0-9-1-12-2-4-1-10-3-18-5-4-1-10-3-16-5-2-1-5-2-7-3-2-1-5-2-8-3-2-1-4-2-5-3-1 0-3-1-4-1-1-1-2-2-3-2-2-1-4-2-11-7-3-2-5-3-6-3 0 0-2-1-5-3-2-2-4-4-5-4-1 0-2-1-3-2-1-1-5-4-9-7-9-7-36-34-45-46-4-5-7-10-7-10 0-1-1-3-3-5-2-3-4-5-4-6 0 0-1-1-2-2 0-1-1-2-1-4 0-1-1-2-2-3-1-1-2-2-2-3 0-2 0-3-1-4-1-1-2-2-2-3 0-1-1-3-2-4-1 0-1-2-1-4 0-1-1-3-2-4-1-1-2-3-2-5 0-1-1-3-2-4 0 0-1-3-1-5 0-2-1-4-2-5-1-2-2-4-2-6 0-2 0-5-1-6-1-2-2-5-2-8 0-3-1-6-2-8-1-2-1-6-1-11 0-4-1-11-2-15-2-10-2-25 0-35 1-4 2-11 2-15 0-4 0-9 1-12 1-2 2-5 2-8 0-2 1-5 2-7 1-1 1-4 1-6 0-2 1-4 2-6 1-1 2-3 2-5 0-1 1-4 1-5 1-1 2-3 2-5 0-1 1-2 1-3 1 0 2-3 3-5 0-2 1-4 2-4 1 0 1-2 1-3 0-2 1-3 2-4 1-1 1-3 1-4 0-1 1-2 2-3 0 0 1-1 2-3 0-1 2-4 3-6 1-1 3-4 3-5 2-2 8-12 10-14 1-1 3-4 5-7 5-7 33-35 45-44 17-12 23-16 40-24 3-2 7-4 9-5 1-1 4-1 4-1 1 0 3-1 4-2 0-1 2-2 4-2 2 0 4 0 5-1 1-1 4-2 5-2 2 0 4-1 6-2 1-1 4-1 6-1 2 0 5-1 7-2 1-1 5-2 7-2 3 0 6-1 8-1 1-1 7-2 14-2 7-1 16-2 22-2 7-1 12-1 18 0 5 0 14 1 20 1 7 1 14 2 15 3 2 0 6 1 9 1 3 0 6 1 8 2 1 1 4 2 6 2 2 0 5 0 6 1 1 1 4 2 6 2 2 0 4 1 5 2 1 1 2 1 4 1 1 0 3 1 5 2 1 1 3 2 4 2 1 0 3 1 4 1 1 1 2 2 3 2 1 0 3 1 4 2 1 1 2 2 3 2 1 0 3 0 4 1 0 1 2 2 3 2 1 0 2 1 3 1 0 1 2 2 3 3 1 0 4 2 6 3 2 1 4 3 6 3 1 1 2 2 2 3 0 0 1 1 2 1 1 0 5 3 16 12 10 7 26 23 32 31 3 4 6 8 7 8 1 2 13 18 15 23 1 1 3 5 5 9 2 4 4 8 5 9 0 1 1 2 2 3 0 1 1 3 1 4 1 0 2 3 3 4 0 2 1 4 1 6 0 1 1 2 2 3 1 1 2 3 2 4 0 1 0 4 1 5 1 1 2 4 2 5 0 2 1 5 2 6 1 1 1 4 1 6 0 3 1 5 2 6 1 2 2 5 2 8 0 3 1 7 2 10 2 6 2 65 0 73-1 3-2 7-2 9 0 3-1 7-2 9-1 2-2 5-2 7 0 2 0 4-1 5-1 1-2 4-2 6 0 2-1 4-2 5-1 2-1 4-1 5 0 1-1 3-2 5-1 2-2 5-4 8-1 2-2 5-3 6 0 1-1 2-1 3-1 1-1 3-2 4 0 0-2 4-3 6-4 7-16 25-20 30-2 3-4 5-4 6 0 1-28 28-35 34-4 3-8 7-11 9-2 2-4 3-5 3 0 0-2 2-5 3-2 2-5 4-5 4-1 1-4 2-6 3-1 2-6 4-9 6-3 1-6 3-7 3-2 1-8 4-15 7-2 1-5 3-7 3-2 1-4 2-6 2-1 0-3 1-4 2-2 1-4 1-6 1-1 0-4 1-6 2-2 1-5 2-7 2-2 0-5 0-6 1-2 1-7 2-11 2-5 1-11 2-14 2-6 2-48 2-56 0z m69-21c38-7 70-21 98-43 11-8 31-28 38-36 2-3 4-6 5-7 1-1 3-4 6-8 31-44 44-98 37-151-2-18-6-35-9-42-1-2-2-5-2-5 0-1 0-3-1-6-1-2-3-5-4-7-3-7-10-21-12-24-1-2-2-4-3-5-1-3-10-17-14-21-12-15-28-31-42-41-4-3-8-6-8-7-1 0-2-1-2-1-1 0-4-2-7-4-7-4-28-15-39-19-14-5-29-9-47-13-15-2-59-1-74 1-15 3-30 7-37 10-2 1-3 1-4 1-1 0-2 1-3 1-1 1-5 3-8 4-25 11-49 28-69 48-10 10-29 33-32 38 0 1-1 4-3 5-1 2-3 7-5 10-1 3-3 6-4 7 0 1-2 4-3 6-1 3-2 6-3 8-1 2-2 4-2 4 0 1 0 3-1 5-4 8-8 24-11 42-3 22-2 55 4 80 3 13 4 18 10 33 2 4 12 25 15 29 16 29 50 64 79 80 6 3 26 13 32 15 3 2 7 3 8 4 11 4 35 10 49 11 14 2 57 1 68-2z m-107-123c-11-4-20-11-20-15 0-1 0-2-1-3-2-1-2-4-2-13 1-11 1-12 4-16 8-11 15-14 30-14l9 0 7-6 8-7-3-4c-4-5-6-8-7-11 0 0-1-3-2-4-2-4-2-20 0-27 1-4 1-4-4-8-22-19-21-19-28-15-10 5-18 5-30 0-5-3-13-12-14-16-1-2-1-4-2-6-1-3-1-8 0-13 1-2 2-5 2-6 1-4 9-12 15-16 6-3 21-3 27 0 4 2 13 11 17 16 2 3 2 21 0 25-1 3-1 4 3 7 2 2 6 6 9 8 4 3 6 5 7 5 4 5 5 5 13 0 4-3 9-5 10-5 1 0 3-1 4-2 1-1 5-1 11-1 5 0 9-1 10-1 1 0 22-29 22-31 0-1-1-4-3-6-9-17 4-38 24-38 4 0 7 1 8 2 0 1 2 2 3 2 2 0 8 6 12 11 2 4 2 18 0 22-4 5-10 11-12 11-1 0-3 1-3 2-1 1-4 1-10 1l-8 0-4 5c-2 3-5 6-5 6-2 3-12 18-12 18 0 1 2 4 5 7 2 2 6 6 7 8 1 1 3 3 3 4 0 1 1 3 1 4 1 1 2 4 2 6 0 6 1 7 8 7 8 0 27-2 31-3 1-1 2-2 2-3 0-2 10-13 15-16 4-2 7-2 15-2 9 0 10 0 16 4 15 10 19 23 13 38-4 7-11 15-16 16-1 0-4 1-5 2-7 4-21 0-27-6-8-7-11-11-11-14 0-1-1-3-2-4-3-3-4-3-30-1-9 1-7 0-16 13-2 4-5 7-5 7-2 0-2 3 0 6 1 2 3 6 4 9 3 6 4 7 10 7 8 0 19 7 19 13 0 1 0 2 1 4 1 2-1 11-4 15-5 7-19 10-25 5-9-8-10-9-10-17 0-4 1-9 1-11 1-3 1-4-2-12-5-11-7-12-11-10-4 1-22 1-26 0-1-1-4 1-9 5-4 3-8 6-8 7 0 1 0 3 1 5 6 8 6 11 6 20 0 7 0 10-1 12-1 1-2 2-2 3 0 2-11 13-14 13-2 1-5 2-6 2-4 2-12 1-15 0z m13-11c5-2 10-6 13-11 4-7 2-17-6-24-3-3-4-3-13-3-9 0-12 1-17 10-9 14 6 33 23 28z m98-17c4-4 4-9 1-12-4-4-9-4-13-1-4 4-4 9 1 13 4 4 7 4 11 0z m-40-50c12-4 22-17 22-28 0-11-11-25-21-28-6-2-14-2-20 0-10 3-20 17-20 27 0 11 10 25 21 29 7 2 11 2 18 0z m109-4c6-2 12-8 13-14 1-3 1-5 0-9-2-7-3-8-8-12-4-3-6-3-11-3-6 0-8 0-11 3-7 5-9 9-9 16 0 9 5 17 14 19 5 1 8 1 12 0z m-192-73c14-9 12-27-3-35-8-4-17-2-24 5-6 7-7 18-1 26 4 6 9 8 17 8 5 0 7-1 11-4z m132-29c5-2 10-8 10-13 0-4-4-11-8-13-7-4-16 0-20 8-2 4-2 5-1 8 1 4 5 9 10 11 4 1 4 1 9-1z"/>
<glyph glyph-name="vf1dd4qkm9" unicode="&#117;" d="M32 503c0-1-1-37 0-80l0-78 49 0 49-1 0-111c1-81 1-116 3-128 1-16 1-16 5-20 6-5 15-6 75-7l51-1 0-33c0-24 1-33 2-34 1 0 49 0 107 0 81 0 106 0 107 1 1 1 2 20 2 77 0 42-1 77-1 78 0 1-2 3-3 3-1 0-27 0-59 0-32-1-79-2-105-2l-47-1-1-20c0-11-1-27-1-35l-1-16-58 0-59 0 0 160 58 0c32 0 58 0 59 0 0 0 0-16 0-34l1-34 216 0 0 156-216 0-1-36c0-19 0-36 0-36-1 0-27 0-58 0l-58 1 0 72 49 2 49 2 0 155-107 1c-85 0-107 0-107-1z m187-50c2-1 2-1 2-39 0-24 0-38-1-40-1-2-3-2-81-2-51 0-80 1-81 1-1 2-1 79 1 81 1 1 14 1 79 1 69 0 78 0 81-2z m233-158c2-1 2-3 2-40 0-38 0-40-2-41-2-1-155-2-158 0-2 0-2 5-2 41 0 37 0 40 2 40 4 1 156 1 158 0z m-1-176l3-1 0-40c0-31 0-39-1-40-1-1-24-1-81-1l-80 0 0 41c0 38 0 41 2 41 4 1 154 1 157 0z"/>
<glyph glyph-name="kkwsacdxsj" unicode="&#118;" d="M260 505c-1 0-2 0-3 0 0 0-2-1-3-1-2-1-5-3-6-3 0 0-3-1-7-3-4-2-7-4-7-4-1 0-3 0-5-1-7-4-15-8-18-9-1 0-4-1-5-2-2-1-5-3-7-4-4-1-16-7-18-8 0 0-1-1-1-1-1 0-2 0-3-1-5-2-6-3-7-3-2-1-9-5-11-5-1-1-3-1-3-2 0 0-1 0-2-1-3-1-12-5-13-6-1 0-3-1-5-2-8-4-18-9-20-10-1-1-9-4-9-4 0 0-1 0-1-1-1 0-2-1-4-1-2-1-19-9-21-10 0-1-2-2-5-3-2-1-4-2-5-2 0-1-2-2-4-3-7-3-10-4-10-5-1 0-3-1-6-2-2-1-4-3-4-3-1 0-1 0-1 0-1 0-3-1-4-2-5-3-6-7-7-18-1-10-1-259 0-267 0-5 1-6 2-7 2-3 7-6 22-14 4-2 7-3 7-4 1 0 2 0 3-1 4-2 17-8 18-8 0-1 2-2 10-5 2-1 4-2 4-2 1-1 2-1 3-2 4-1 14-6 21-10 4-1 8-4 10-4 2-1 4-2 5-3 0 0 1 0 1 0 2-1 16-8 17-9 1 0 2 0 2 0 0 0 1-1 2-1 0 0 3-2 5-3 3-1 6-2 7-3 3-1 8-4 9-4 0 0 3-1 6-3 4-2 7-3 7-3 1 0 1 0 2-1 0 0 8-4 9-4 0 0 9-5 16-8 1 0 2-1 2-1 1 0 1 0 2-1 0 0 1 0 1 0 1 0 7-3 10-5 0 0 2-1 4-2 2 0 5-2 7-3 10-4 13-4 22-1 3 1 6 3 6 3 1 0 2 1 2 1 0 0 3 1 5 2 3 1 7 3 9 4 2 1 4 2 4 2 0 0 1 0 1 0 1 0 2 1 2 1 1 0 2 1 3 2 2 0 5 2 6 2 2 1 4 2 4 2 1 0 1 0 2 1 0 0 1 1 1 1 1 0 4 1 7 3 10 5 12 5 12 5 1 0 1 1 2 1 0 0 2 1 4 2 1 1 6 3 9 4 4 2 7 3 7 3 1 0 1 1 1 1 1 0 3 2 8 4 1 0 5 2 8 3 7 4 13 6 19 9 2 1 4 2 5 3 1 0 6 3 19 9 3 1 5 2 6 2 2 2 9 5 10 5 0 0 0 0 1 1 0 0 1 1 3 1 1 1 3 2 4 2 4 2 10 5 10 5 1 1 2 1 6 3 1 0 2 1 2 1 1 0 3 1 5 3 15 7 19 9 21 12 1 3 0 5-7 9-4 2-34 17-36 18 0 0-2 0-3 1-1 1-3 2-4 2-1 1-9 4-16 8-8 4-14 7-15 7 0 0-1 0-1 1-1 0-1 1-2 1 0 0-1 0-2 0 0 1 0 1-1 1 0 0-7 3-9 5-1 0-6 2-9 4-1 0-2 1-4 2-1 0-2 1-3 1 0 0-7 4-9 5-1 0-6 2-9 4 0 0-1 0-2 1 0 0-3 1-5 2-4 2-7 3-16 8-2 1-3 1-4 2 0 0-5 2-11 5-6 3-11 6-12 6 0 0-2 1-3 2-18 8-30 14-33 17l-2 1 0 32c0 32 0 32 1 33 1 1 2 2 3 2 1 1 2 2 3 2 1 1 4 2 6 3 2 1 4 2 5 3 2 1 8 4 9 4 1 0 2 1 2 1 1 1 1 1 2 1 0 0 1 0 1 1 1 0 1 1 2 1 0 0 3 1 9 4 2 1 4 2 4 2 1 0 2 1 3 1 4 2 12 6 19 9 7 3 13 6 19 9 2 1 4 2 5 2 0 1 1 1 2 1 2 1 6 3 12 6 3 2 7 3 7 3 1 0 1 0 1 0 1 1 7 4 8 4 0 0 9 5 11 6 0 0 1 0 2 1 5 2 12 5 19 8 4 2 8 5 10 5 4 2 24 12 25 12 0 0 2 1 3 2 2 1 5 2 7 3 2 1 5 3 8 4 2 1 4 2 4 2 1 0 5 3 6 5 1 2 1 2 0 4-1 2-7 6-15 10-3 1-5 2-6 2-1 1-9 5-9 5 0 0-1 0-1 1-1 0-1 1-2 1 0 0-1 0-2 0 0 1-2 2-4 3-4 1-15 6-17 7 0 1-2 2-5 3-5 2-8 4-13 6-2 2-4 3-5 3 0 0-1 0-1 0-1 1-2 1-2 1-1 0-1 1-2 1 0 1-1 1-1 1-1 0-3 1-6 2-2 1-5 3-6 4-2 0-6 2-9 4-4 1-8 3-9 4-2 1-4 2-4 2-1 1-2 1-2 1 0 0-4 2-8 4-9 4-16 7-21 10-2 1-4 1-4 2-2 0-9 4-11 5-1 0-4 2-6 3-2 1-5 2-6 2-1 1-2 2-3 2 0 0-3 1-6 3-3 1-6 2-7 3-1 1-4 2-7 3-2 1-5 2-5 3-1 0-1 1-2 1 0 0-2 0-5 2-3 1-5 2-6 2-5 2-6 2-7 1z m5-11c2-1 15-7 20-10 2-1 7-3 12-5 4-2 9-5 11-6 2 0 3-1 4-2 0 0 2 0 3-1 1 0 4-2 7-3 18-9 23-11 24-11 0 0 1-1 1-1 0-1 1-1 2-1 0 0 6-3 13-6 11-6 17-9 19-10 1 0 2 0 2-1 1 0 4-2 8-3 4-2 11-5 15-8 4-2 12-5 16-7 5-2 9-4 9-5 1 0 4-2 11-5 13-6 21-10 22-12 0 0 0-1 0-2 0-1-4-4-5-4 0 0-1 0-2-1-4-2-22-10-25-11-1-1-3-2-4-2 0-1-1-1-1-1 0 0-2-1-4-2-2-1-6-3-9-4-3-2-8-4-11-5-4-2-6-3-7-3 0 0-4-2-8-4-15-8-19-9-20-9 0 0-1 0-1-1 0 0-2-1-4-2-1-1-6-3-9-4-4-2-7-3-7-3 0 0-3-2-7-4-4-2-8-4-10-4-1-1-4-2-6-3-3-2-6-3-6-3-1 0-2-1-2-1-1 0-1-1-2-1 0 0-1 0-2-1 0 0-1 0-2-1-3-1-7-3-8-3 0-1-1-1-2-2-1 0-3-1-4-1-2-1-3-2-3-2-1 0-1 0-2-1 0 0-2-1-3-1-4-2-7-3-8-4-1 0-5-2-6-3 0 0-1 0-2 0 0-1-1-1-2-2-10-4-9-4-26 4-3 2-7 4-9 5-1 0-3 1-3 1-1 1-1 1-2 1 0 0-3 1-6 3-5 2-7 3-16 8-2 1-8 3-12 5-4 2-9 4-10 5-2 1-4 2-4 2 0 0-1 1-2 1-3 1-8 3-9 4-1 1-6 3-13 6-1 0-2 1-2 1-1 1-15 8-19 9-4 2-11 5-12 6-4 2-9 5-20 10-2 0-4 2-5 2-1 0-9 4-13 6-12 5-27 13-28 14-1 2-1 2-1 3 1 1 1 2 2 2 1 1 9 5 17 9 3 1 8 3 12 6 5 2 8 3 9 3 0 0 1 0 1 1 0 0 2 1 4 2 2 1 6 3 10 5 4 2 9 4 11 5 2 1 7 3 12 5 4 3 9 5 10 5 1 1 2 1 3 2 0 0 2 1 3 1 1 1 5 3 9 4 3 2 7 4 9 5 1 0 3 1 4 1 0 1 1 1 2 2 2 0 7 3 9 4 1 0 2 1 3 1 2 1 11 6 16 8 2 1 6 3 10 5 9 4 13 6 17 8 2 0 4 1 4 1 1 1 3 2 9 5 6 3 9 4 12 5 3 2 7 2 9 1z m-211-111c0 0 1 0 1 0 1 0 7-3 13-6 7-4 12-6 13-6 0 0 3-1 6-3 9-5 18-9 21-10 1 0 3-1 3-2 1 0 2 0 2 0 0 0 3-2 7-4 4-2 8-4 9-4 1 0 5-2 8-4 4-2 8-4 10-5 2 0 3-1 4-2 0 0 0 0 1 0 0 0 2-1 4-2 2-1 4-2 5-2 0 0 1 0 1-1 1 0 13-6 17-8 1 0 5-2 9-4 3-1 7-3 8-3 0-1 2-2 3-2 2-1 3-2 3-2 1 0 4-2 9-4 4-2 10-4 13-6 10-5 22-10 22-11 1 0 2-1 3-1 2-1 5-3 5-5 1 0 1-9 1-30 0-16 0-30 0-31 0-3-2-6-5-7-1 0-1-1-2-1 0 0-1-1-2-1-2-1-14-6-22-10-3-2-8-4-11-6-3-1-9-4-12-5-3-2-9-4-12-6-3-1-8-3-11-5-9-4-14-7-18-8-2-1-4-2-4-2-1-1-8-5-11-6-7-3-14-6-18-8-1-1-2-1-3-2-5-2-12-5-19-9-5-2-8-4-8-4-1 0-4-1-8-3-13-6-18-9-21-10-2-1-7-3-11-5-4-2-8-4-9-4 0 0-1 1-2 2-1 2-1-8-1 160 0 111 0 100 5 100 1 0 3-1 4-2z m200-180c1-1 1-6 1-91 0-79 0-90-1-92-1-2-3-2-9 1-3 1-6 3-8 3-8 4-11 6-18 9-4 2-8 4-8 4-1 0-4 2-8 3-4 2-9 5-11 6-8 4-14 6-22 10-4 2-9 4-12 6-3 1-7 3-10 5-3 1-8 3-11 5-3 1-10 4-14 7-5 2-11 4-12 5-2 1-7 4-11 6-5 2-11 5-14 6-16 7-27 13-28 14 0 1 0 2 1 3 1 2 14 9 16 9 0 0 1 0 1 0 0 0 2 2 4 3 6 3 24 11 32 14 1 1 3 2 3 2 0 1 1 1 1 1 1 0 2 0 2 1 1 0 1 1 2 1 0 0 4 1 8 3 8 4 18 9 24 12 2 1 7 3 12 5 9 5 14 7 19 9 1 1 3 2 4 2 0 1 2 1 9 5 7 3 18 8 19 9 1 0 2 1 3 1 5 2 7 3 7 3 1 1 2 1 3 2 3 1 7 3 8 3 1 1 5 3 8 4 1 1 2 1 4 2 3 1 5 1 6-1z m22 0c2-1 9-4 13-6 1 0 7-3 14-7 7-3 12-6 13-6 0 0 18-8 20-9 0-1 4-2 8-4 4-2 9-5 12-6 14-7 22-11 27-13 3-2 12-6 19-9 6-3 12-6 13-6 0 0 1-1 3-1 1-1 2-2 3-2 1-1 22-11 33-16 14-7 14-8 0-14-2-1-3-2-4-2-1-1-15-7-17-8-2-1-3-1-6-3-1-1-5-2-7-4-3-1-7-3-9-4-2-1-4-2-5-2-1 0-2-1-2-1 0 0-2-1-5-2-8-4-13-7-20-10-5-2-8-4-9-4 0 0-3-1-7-3-9-4-14-7-17-8-3-1-3-2-5-3-1 0-4-1-6-3-9-4-12-5-19-8-4-2-7-4-7-4-1 0-3-1-6-2-7-4-16-8-18-9-1 0-4-2-7-3-6-3-8-3-9-2-1 2-1 5-1 92-1 74 0 90 0 92 1 1 1 2 3 2 1 0 3-1 5-2z"/>
<glyph glyph-name="c5dor3tri9" unicode="&#119;" d="M48 447c-15-1-29-9-38-21-4-5-8-14-9-20-1-5-1-317 0-322 0-3 2-9 3-10 0 0 1-2 2-4 2-5 9-12 14-17 5-3 9-6 10-6 1 0 1 0 2 0 0-1 6-3 11-4 4-1 27-1 212-1 186 0 209 0 213 1 5 1 11 3 11 4 1 0 1 0 1 0 1 0 6 3 10 6 6 4 12 12 15 18 1 1 2 3 2 3 1 2 3 8 3 10 0 2 1 2 1 2 1 0 1 23 1 159 0 137 0 158-1 158 0 0-1 1-1 3-1 3-3 10-6 15-5 10-16 18-27 23-5 2-9 3-15 3-9 1-406 1-414 0z m418-22c7-2 12-5 17-11 3-4 6-9 6-14 1-2 1-16 1-31l0-28-469 0 0 28c0 15 0 29 1 31 1 10 9 20 18 23 7 3-7 3 215 3 199 0 207 0 211-1z m24-107c0 0 0-39 0-116 0-111-1-115-2-117 0-1-1-3-2-5-1-1-3-4-5-6-4-5-10-9-16-10-4 0-416 0-419 0-12 3-22 13-24 25-1 1-1 53-1 116 0 95 0 113 1 114 0 0 79 0 234 0 195 0 233 0 234-1z m-411 86c-2-1-4-2-7-4-3-2-4-4-6-7-2-3-2-3-2-10 0-5 0-6 1-8 3-5 6-8 11-11 3-2 14-2 17 0 6 3 8 6 11 11 1 2 1 3 1 8 0 6 0 7-1 10-2 4-6 7-11 10-2 1-11 2-14 1z m64 0c-1 0-3-1-5-2-8-5-13-16-9-25 1-5 5-10 10-12 3-2 4-2 10-2 6 0 6 0 10 2 9 5 13 16 10 25-2 6-5 10-11 13-2 1-4 1-8 1-3 0-6 0-7 0z m64 0c-2-1-4-2-7-4-3-2-4-4-6-7-2-3-2-3-2-10 0-5 0-6 1-8 3-5 6-8 11-11 3-2 14-2 17 0 6 3 8 6 11 11 1 2 1 3 1 8 0 6 0 7-1 10-2 3-6 7-10 9-2 2-3 2-8 2-3 0-6 0-7 0z m48-112c-3-2-14-7-23-11-11-5-14-7-18-9-5-2-12-5-21-9-9-4-23-12-24-13-1 0-2-1-2-2 0-1 0-25 0-57l0-56 1-1c1-1 7-4 23-12 4-2 9-4 12-6 3-1 7-3 11-5 3-1 7-3 10-5 2-1 6-3 8-4 2-1 6-2 8-3 2-1 5-2 7-3 2-1 5-3 6-3 3-2 6-2 9-1 0 1 2 2 3 2 10 4 17 7 35 16 14 6 23 11 31 15 18 8 17 8 17 9 0 2-1 2-3 3-2 1-4 2-4 2 0 0-4 2-8 4-4 2-11 5-16 8-10 5-18 8-25 12-4 2-20 10-26 12-6 3-6 3-6 16 0 7 0 13 1 13 0 2 6 5 26 14 3 1 6 3 8 4 2 1 6 3 9 4 3 1 7 3 9 4 8 4 14 7 24 12 10 5 11 5 11 7 0 1-1 1-9 6-17 8-27 13-42 20-3 1-7 3-10 4-2 2-7 4-10 5-21 10-19 9-22 8z m19-11c8-4 16-8 19-9 5-3 10-5 25-12 11-6 17-8 17-8 0 0 1-1 2-1 5-3 5-2-18-13-2-1-6-3-9-4-5-3-9-4-17-8-2-1-6-3-9-4-3-2-7-4-9-5-2 0-6-2-9-4-9-4-8-4-12-2-2 1-6 3-10 5-3 1-8 4-11 5-3 1-7 3-9 4-2 1-7 3-10 5-2 1-7 3-10 5-3 1-10 4-16 7-11 5-13 6-12 7 0 1 1 2 12 7 4 1 8 4 10 5 5 2 13 6 20 9 3 1 8 3 10 4 2 2 6 4 10 5 3 2 8 4 12 6 3 1 7 3 8 3 1 0 6-2 16-7z m-96-39c6-3 23-11 32-15 3-2 7-4 10-5 3-1 7-3 9-4 3-1 7-4 11-5 3-2 7-4 9-5 2 0 4-2 5-2l1-1 0-13 0-14-7-3c-4-2-8-4-10-5-4-2-9-4-21-10-3-1-7-3-9-4-6-3-16-8-21-10-16-7-15-7-16-6-1 1-1 18-1 52 0 33 0 50 1 51 1 2 2 1 7-1z m77-106c0-20 0-37 0-37 0-2-1-2-6 0-7 3-12 6-17 8-5 3-14 7-22 11-8 4-17 8-20 9-10 4-14 7-14 7 0 1 3 4 3 4 1 0 3 1 5 2 2 1 6 3 8 4 3 1 8 3 11 5 7 3 11 5 21 10 9 4 17 7 22 10 4 2 6 3 7 3l2 0z m11 34c2 0 6-2 9-4 3-1 9-4 13-6 4-2 10-5 14-7 3-1 9-4 12-5 3-2 8-4 11-6 3-1 8-3 10-5 3-1 5-2 5-2 0-1-2-3-3-3 0 0-3-1-15-7-2-1-6-3-8-4-4-2-7-3-17-8-3-1-7-3-9-4-8-4-12-5-18-8-8-4-9-4-10-3 0 1 0 72 0 73 1 1 3 1 6-1z"/>
<glyph glyph-name="vgam9uo75u" unicode="&#120;" d="M52 506c0 0-1-1-3-1-9-2-18-9-22-19-3-6-3-8-3-42 0-24 0-32-1-32 0-1-3-1-9-1-10 0-11-1-13-4-1-2-1-4-1-45l0-44 1-2c3-4 2-4 32-4 25 0 27 0 28 2 1 0 3 2 3 3 1 1 1 2 1 44 0 48 1 46-3 49-2 1-3 1-11 1-6 0-9 0-10 1 0 0-1 8-1 33 0 28 1 33 1 35 1 3 4 7 8 8l2 2 432 0 3-2c4-2 6-5 7-9 1-2 1-54 1-211 0-225 0-212-3-216-1-1-3-2-5-3l-3-2-432 0-3 2c-3 1-5 4-7 7 0 1 0 7-1 24l0 22-2 2c-3 3-6 3-9 2-5-2-5-3-5-26 0-20 0-23 3-29 4-10 14-18 24-20 2 0 4-1 5-1 1 0 3-4 6-9 3-5 6-10 7-11 3-5 1-5 37-5 38 0 34 0 39 7 2 3 3 5 3 5 0 1 7 12 8 13 1 1 24 1 114 1l113 0 1-1c0-1 2-3 3-6 1-2 3-5 4-6 0-1 2-3 3-5 1-2 2-4 3-5 2-3 2-3 36-3 34 0 33 0 36 3 1 1 8 13 11 19 2 3 3 4 5 5 1 0 4 1 7 2 6 3 12 9 15 16l2 5 0 427-2 5c-4 8-11 15-19 17-5 1-6 2-5 2 0 1-73 1-216 1-185 0-215 0-215-1z m-3-144l0-33-16-1c-13 0-15 0-16 1-1 1-1 5-1 33 0 28 0 31 1 32 1 1 3 1 16 1l16 0z m87-332c0-2-4-8-5-8-1-1-12-1-25-1-23 0-24 0-25 1-2 2-5 7-5 8 1 1 5 1 30 1 27 0 30-1 30-1z m326 0c1-1 0-3-3-7l-1-2-50 0-1 2c-2 2-4 6-3 7 0 1 3 1 29 1 23 0 29 0 29-1z m-255 418c-5-3-13-6-13-6 0 0-3-2-7-4-4-2-7-3-8-3 0 0-3-2-7-4-4-2-9-4-12-5-3-2-7-4-10-5-2-1-7-3-10-5-16-7-37-18-40-20-3-2-3 1-3-76l0-69 2-2c1-2 8-5 23-12 4-2 8-4 8-4 1-1 2-1 2-1 2-1 11-5 20-10 5-2 9-4 9-4 0 0 4-2 9-4 4-2 10-5 11-5 2-1 5-2 6-3 1-1 3-2 5-2 2-1 6-3 8-4 10-5 11-5 16-3 2 1 5 3 7 3 2 1 5 2 7 3 3 2 6 3 16 8 2 1 7 3 12 5 4 2 10 5 13 7 3 1 8 3 11 4 3 2 8 4 11 6 6 3 13 6 16 7 0 1 4 2 8 4 6 3 6 4 7 5 0 2-1 3-5 5-2 1-27 13-33 16-2 1-7 3-11 6-5 2-12 5-15 7-4 2-10 4-13 6-4 2-10 4-13 6-12 6-17 8-18 10l-2 1 0 16 0 16 1 1c1 1 4 3 8 4 11 6 18 9 21 10 1 1 6 3 10 5 4 2 8 4 9 4 1 1 4 2 8 4 3 2 8 4 9 4 2 1 6 3 10 5 4 2 7 3 7 3 1 0 25 12 26 13 1 2 1 4-1 5-2 1-16 8-47 23-4 2-9 5-11 6-14 6-23 10-23 10 0 0-4 2-8 4-21 10-22 10-26 9z m10-7c3-2 9-4 13-6 3-2 8-4 10-5 4-2 11-6 27-13 8-4 19-9 24-12 2-1 5-2 6-3 1 0 4-1 5-2 8-3 11-5 11-7 1-1 1-1-19-10-5-2-11-5-13-6-2-1-6-3-9-4-3-2-7-4-9-5-3-1-9-4-13-6-5-2-10-4-12-5-2-1-4-2-5-2-1-1-2-1-2-2 0 0-3-1-5-2-2-1-5-3-8-4-3-1-6-2-7-2-1 0-4 1-6 2-6 3-16 7-22 10-2 2-6 3-9 4-2 1-7 4-11 6-5 2-10 4-12 6-8 3-22 10-34 16-11 5-11 5-2 9 3 2 8 4 11 6 3 1 9 4 13 5 3 2 8 4 10 5 2 1 6 3 10 5 3 2 8 4 10 5 2 1 7 3 11 5 13 6 19 9 22 10 2 1 4 2 6 3 1 1 3 1 3 1 1 0 3-1 6-2z m-111-53c1-1 7-4 18-9 3-1 7-4 11-5 3-2 8-4 10-5 1 0 3-1 3-2 1 0 3-1 6-2 7-3 11-5 12-6 1 0 2-1 2-1 2-1 13-6 20-9 3-2 8-4 11-6 4-1 7-3 8-4 1-1 1-2 1-17 0-16 0-16-2-17 0-1-2-2-3-3-3 0-6-2-17-7-4-2-9-5-12-6-2-1-7-3-10-5-4-1-8-4-10-5-2-1-7-3-10-4-4-2-9-4-11-5-2-1-7-4-11-6-3-1-8-4-11-5-2-1-5-2-5-2-2-1-3-1-4 0 0 1 0 129 0 130 1 1 2 1 4 1z m101-138c0-43 0-47-1-47 0 0-3 1-6 2-2 2-7 4-9 5-2 1-7 3-11 5-4 2-8 4-10 5-2 1-6 3-9 4-3 2-8 4-9 5-2 0-8 3-12 5-5 2-11 5-13 6-13 6-18 9-18 10-1 1 2 3 4 4 1 1 4 1 5 2 6 3 14 6 21 10 4 2 10 5 13 6 2 1 5 3 6 3 0 0 1 1 2 1 2 1 7 3 13 6 3 1 7 4 10 5 5 2 16 7 19 9 1 1 3 1 4 1l1 0z m20 43c4-3 9-5 11-6 2-1 14-6 26-12 19-9 22-11 28-13 3-2 7-4 10-5 2-1 5-3 6-3 1-1 2-2 3-2 2-1 3-3 1-4-1-1-6-3-11-5-5-3-13-6-18-9-3-1-7-3-9-4-2-1-7-3-11-5-4-2-7-4-7-4-1 0-9-4-9-4-1 0-1-1-2-1 0 0-3-1-7-3-3-1-8-3-10-4-1-1-5-3-7-4-5-2-6-2-7 0 0 2 0 89 0 91 1 2 2 1 13-3z m-199 5c-1-1-2-2-3-3-1-3-1-4-1-38l0-35-9 0c-6 0-10-1-11-1-1 0-2-2-3-3l-1-2 0-44c0-42 0-43 1-45 1-1 2-2 3-3 2-1 3-1 28-1 30 0 29 0 32 4l1 2 0 43c0 41 0 44-1 45-2 4-3 5-14 5l-9 0-1 36 0 36-2 2c-2 3-6 3-10 2z m21-126l0-33-1 0c-1 0-8 0-16 0-13 0-15 0-16 1 0 1 0 63 0 64 1 1 2 1 17 1l16 0z m344 39c0 0-2-1-4-1-17-3-34-16-41-31-4-9-5-14-5-25 0-9 0-12 3-19 7-17 22-31 40-35 7-2 20-2 26 0 17 4 30 15 38 31 4 8 5 14 5 24 0 10-1 15-5 24-6 12-18 23-29 28-2 0-4 1-5 1-3 2-9 3-16 3-3 0-6 0-7 0z m15-7c6-1 9-2 14-4 5-3 9-5 13-10 8-9 13-18 14-29 2-22-7-41-26-51-5-3-10-4-17-6-22-3-44 9-53 30-2 4-3 6-4 14-2 9 0 21 4 28 5 10 10 15 17 20 6 4 13 7 20 9 3 0 15 0 18-1z m-11-7c-1-1-1-1-1-6 0-6 0-6-6-8-2 0-5-2-7-3-1-1-3-1-3-1-1 0-3 1-4 3-5 4-7 5-8 2-1-1 0-3 4-7 1-2 3-3 3-3 0-1-1-2-2-4-1-2-2-4-3-5 0-2-1-4-1-5l-1-2-5 0c-5 0-5 0-7-2-1-1-1-1 0-3 0-1 1-2 7-2l5 0 1-3c2-5 3-8 5-10 0-1 1-2 1-2 0-1-2-2-3-4-5-5-5-6-4-8 1-2 3-1 7 3 2 2 4 3 5 3 0 0 2-1 4-2 2-1 4-2 6-2 2-1 4-1 4-2 2 0 2-2 2-7 0-3 0-4 1-5 3-2 5 0 5 5 0 6 0 7 2 7 4 1 9 3 12 5 1 1 2 1 2 1 0 0 2-1 4-3 5-4 6-5 8-3 1 2 1 2 0 3-1 1-2 3-3 4-5 4-5 4-2 8 1 2 3 5 3 7 1 2 1 4 2 5 0 0 2 0 5 0 5 0 7 1 7 4 0 2-2 2-7 3-6 0-6 0-7 5 0 2-2 5-3 6-1 2-2 4-2 4 0 1 2 3 4 5 2 2 4 5 4 5 0 1-3 3-5 3 0 0-2-2-4-4-3-3-5-4-6-3 0 1-7 4-10 5-2 1-4 1-4 2 0 0 0 3 0 5 0 4-1 5-1 6-1 1-3 1-4 0z m11-20c3-1 8-4 10-7 1-1 2-3 3-5 2-3 2-4 2-9 0-5 0-6-1-10-4-11-15-17-27-16-13 2-22 14-20 28 1 9 7 17 16 20 1 0 4 1 8 1 4 0 6 0 9-2z"/>
<glyph glyph-name="server" unicode="&#121;" d="M37 110l292 0 0 36-292 0z m0 146l292 0 0 37-292 0z m448-128c0 8-3 14-8 19-6 6-12 8-20 8-7 0-14-2-19-8-6-5-8-11-8-19 0-8 2-14 8-19 5-6 12-8 19-8 8 0 14 2 20 8 5 5 8 11 8 19z m-448 274l292 0 0 37-292 0z m448-128c0 8-3 14-8 20-6 5-12 8-20 8-7 0-14-3-19-8-6-6-8-12-8-20 0-7 2-14 8-19 5-5 12-8 19-8 8 0 14 3 20 8 5 5 8 12 8 19z m0 147c0 7-3 14-8 19-6 5-12 8-20 8-7 0-14-3-19-8-6-5-8-12-8-19 0-8 2-15 8-20 5-5 12-8 19-8 8 0 14 3 20 8 5 5 8 12 8 20z m27-238l0-110-512 0 0 110z m0 146l0-110-512 0 0 110z m0 146l0-109-512 0 0 109z"/>
<glyph glyph-name="check" unicode="&#122;" d="M477 350c0-7-2-14-8-19l-206-207-39-39c-6-5-12-8-20-8-7 0-14 3-19 8l-142 142c-6 6-8 12-8 20 0 7 2 14 8 19l38 39c6 5 12 8 20 8 7 0 14-3 19-8l84-84 188 188c5 5 12 8 19 8 8 0 14-3 20-8l38-39c6-6 8-12 8-20z"/>
<glyph glyph-name="x" unicode="&#65;" d="M434 160l-96 96 96 96c4 4 4 10 0 14l-68 68c-4 4-10 4-14 0l-96-96-96 96c-4 4-11 4-14 0l-68-68c-2-1-3-4-3-7 0-2 1-5 3-7l96-96-96-96c-2-2-3-5-3-7 0-3 1-6 3-7l68-68c1-2 4-3 7-3 2 0 5 1 7 3l96 96 96-96c2-2 5-3 7-3 3 0 5 1 7 3l68 68c4 4 4 10 0 14z"/>
<glyph glyph-name="pcxhp8hpiw" unicode="&#66;" d="M181 511c-1 0-2-1-4-1-3-1-6-2-11-4-13-6-23-17-27-30-1-3-3-10-3-11 0-2-1-3-6-5-10-6-20-15-26-24l-4-6-48 0c-51 0-48 0-51-3-1-1-1-13-1-212l0-211 2-2 2-2 186 0c146 0 186 0 187 1 3 2 3 3 3 14l0 11-1 2c-3 3-6 4-10 2-3-1-4-3-4-10l-1-5-174 0c-146 0-174 0-175 1 0 0 0 52 0 199l0 199 79 0-1-2c0-1 0-3-1-4-1-4-2-14-2-21 0-4 0-5 2-6 2-4-5-4 98-4 101 0 96 0 99 3 1 1 1 2 1 10 0 9-1 14-3 21 0 1 0 2 0 3 0 0 10 0 39 0l40 0 0-28c0-27 0-29 1-30 3-4 11-3 13 2 1 2 2 65 0 67-1 3-2 4-4 5-2 0-23 0-49 0l-46 0-2 2c-1 1-1 2-1 2-1 1-2 3-4 6-7 8-15 15-25 20-2 1-4 2-4 3 0 0-1 2-1 4-2 14-10 27-22 35-2 1-5 3-6 3-1 1-3 2-3 2-2 1-6 2-10 3-2 0-3 1-3 1 0 1-2 1-9 1-8 0-10 0-10-1z m20-16c8-2 12-5 17-11 6-6 10-15 10-23 0-5 1-7 3-9 0-1 3-2 6-4 14-7 24-16 30-29 1-2 2-4 2-5 0 0 0-1 1-2 2-5 4-17 2-19-1-1-165-1-166 0 0 1 0 2 0 6 4 24 16 40 37 50 7 3 8 4 8 13 0 7 2 11 5 17 6 9 17 16 27 17 5 1 14 0 18-1z m-16-14c-7-1-13-5-18-10-3-3-4-5-6-11-2-3-2-13 0-17 2-7 6-13 12-17 3-2 4-3 8-4 4-1 13-1 17 0 9 3 15 8 19 16 4 8 4 20-1 27 0 1-1 2-1 3-1 2-8 8-11 9-6 3-13 5-19 4z m11-17c7-4 10-12 7-19-3-6-7-9-13-9-6 0-11 3-14 9-1 3-1 9 0 12 2 3 4 6 7 7 3 2 10 2 13 0z m162-125c-1 0-5-2-8-4-3-1-7-4-9-5-3-1-7-4-10-5-3-2-7-4-9-5-1-1-5-3-8-4-4-2-8-4-9-5-2-1-5-3-7-4-2-1-6-3-8-4-3-2-8-4-11-6-3-1-6-3-8-4-1-1-5-3-8-5-4-1-8-3-10-4-1-1-4-3-6-4-1-1-4-2-6-3-2-1-5-3-6-4-2-1-4-2-5-2-2-1-4-3-7-4-2-1-4-3-5-3-3-3-3-2-3-44 0-25 0-41-1-41 0-1-1-1-5-2-22-1-44-15-56-35-4-5-8-14-8-17 0-1-1-3-1-4-3-10-3-26 0-36 0-2 0-3 1-4 0-2 2-7 4-10 1-3 6-11 6-12 0 0 1-1 2-2 3-4 16-17 17-17 0 0 2 0 3-1 5-4 14-8 19-9 1 0 3-1 5-1 1 0 4-1 7-1 35-5 69 17 79 50 1 3 2 4 2 4 1 0 2 0 3-1 1-1 2-1 2-1 1 0 2-1 4-3 2-1 4-2 5-3 0 0 2-1 5-3 2-1 6-4 8-5 2-1 4-3 5-3 1-1 3-2 5-4 2-1 6-3 9-5 2-2 4-3 5-3 1-1 5-3 11-8 8-4 10-6 12-6 2 0 7 3 20 10 3 1 7 3 9 4 2 1 4 3 6 3 1 1 5 3 9 5 3 2 7 4 9 5 1 1 5 3 8 5 4 1 8 4 10 5 2 1 5 2 7 3 2 2 6 4 9 5 3 2 7 4 9 5 2 1 5 3 7 4 3 1 7 3 9 5 3 1 7 3 8 4 3 2 9 5 19 10 3 2 6 3 7 4 1 1 2 1 2 1 1 0 1 22 1 73 0 55 0 72-1 72 0 0-1 1-2 1-1 1-2 2-4 3-1 1-4 2-6 3-2 1-5 3-6 4-2 1-5 2-6 3-2 1-5 3-6 4-2 1-5 2-7 3-2 1-4 3-6 3-2 1-5 3-6 4-2 1-5 2-6 3-2 1-5 3-7 4-3 1-5 3-6 3-1 1-3 2-5 3-1 0-4 2-6 3-2 1-5 3-6 4-2 0-4 2-5 2-2 1-4 2-6 4-2 1-5 2-7 3-1 1-4 2-6 3-2 2-5 3-6 4-3 1-7 4-12 7-2 0-5 2-6 3-2 1-5 2-7 4-3 1-5 2-5 2-1 1-6 1-8-1z m8-16c0-1 3-2 7-4 3-2 5-3 6-3 0 0 2-2 4-3 5-2 10-5 16-8 1-1 4-3 6-4 3-1 5-2 6-3 1-1 3-2 5-2 1-1 4-3 6-4 2-1 6-3 8-4 2-1 5-3 7-4 2-1 5-3 7-4 2-1 5-2 6-3 3-2 7-4 14-8 2-1 5-2 7-3 1-1 4-3 6-4 2-1 5-2 7-3 1-1 3-2 3-2 1-1-1-2-7-5-1-1-4-2-6-3-1-1-4-3-6-4-6-3-10-5-11-6-1-1-2-1-4 1-3 2-8 4-13 7-4 2-9 5-12 7-1 0-3 1-3 1 0 0-3 2-5 3-4 2-6 3-14 8-2 1-5 2-6 3-1 1-5 2-7 4-2 1-4 2-5 2 0 1-3 2-5 3-3 2-6 3-6 4 0 0-2 1-5 2-2 1-5 3-6 4-2 1-5 2-7 4-2 1-5 2-6 3-1 0-2 1-3 2-1 0-4 2-7 3-2 1-5 3-5 3-3 1-8 4-7 5 0 0 3 2 7 4 6 3 20 10 23 12 1 0 3 0 5-1z m-50-27c2-1 4-2 6-3 1-1 3-2 5-3 1 0 3-2 4-2 1-1 4-2 6-3 6-4 10-6 13-7 1-1 4-3 6-4 2-1 6-3 8-4 2-1 5-3 5-3 1 0 2-1 3-1 1-1 3-2 5-3 3-2 6-3 7-4 2-1 5-3 7-4 2-1 4-2 5-2 0-1 3-2 5-4 3-1 6-2 6-3 0 0 3-1 5-2 2-2 5-3 7-4 1-1 4-2 6-3 1-1 4-3 6-4 2-1 4-2 6-3 1-1 4-2 6-3 1-1 3-2 3-3 1 0 1-5 1-18 0-10 0-18 0-19-1-1-1-1-2-2-3-1-9-5-13-6-1-1-3-2-3-2 0 0-1 7-1 17 0 10 0 18 0 19-1 3-2 4-10 8-3 1-6 3-7 4-1 0-3 1-5 2-1 1-4 3-6 4-6 3-11 6-23 12-4 2-6 3-13 7-10 6-14 8-22 12-2 1-4 2-4 3-1 0-4 1-7 3-3 2-7 4-8 4-2 1-7 4-13 8-2 0-5 2-8 4-3 1-5 3-5 3-2 1-1 2 0 3 2 1 10 5 13 7 2 0 3 1 3 1 0 0 1-1 3-2z m-35-18c3-2 6-3 13-7 2-1 5-3 6-4 2-1 5-2 6-3 2-1 5-3 7-4 2-1 5-2 6-3 1 0 3-2 4-2 2-1 5-3 7-4 2-1 5-3 7-4 2-1 5-3 7-4 2 0 4-2 6-3 2-1 4-2 6-3 2-1 4-3 6-3 1-1 4-2 5-3 2-1 6-3 8-5 3-1 6-2 6-3 1-1 3-2 5-3 2 0 4-2 6-3 2-1 5-3 7-3 1-1 3-2 3-3 2-1 2-1 0-2-1 0-3-2-11-6-1 0-3-2-4-2-1-1-4-2-6-4-3-1-5-2-6-3-1-1-3-2-4-2-2-1-4-2-6-3l-3-2-2 2c-2 1-3 2-4 2 0 0-1 0-2 1-1 1-9 5-10 5 0 0-2 2-4 3-2 1-5 3-5 3 0 0-8 4-10 5 0 0-1 1-2 2-1 0-3 1-5 2-1 1-3 2-3 2-1 1-3 2-5 3-3 2-5 3-5 3 0 0-2 1-4 2-2 1-5 3-5 3-1 0-2 1-3 2-2 0-4 2-6 3-2 1-5 2-6 3-2 1-5 3-7 4-2 1-4 3-5 3-1 1-2 1-3 2 0 0-2 1-5 2-2 2-4 3-4 3-1 0-2 1-4 2-1 1-3 2-4 3-2 0-4 2-6 3-4 2-5 3-3 4 2 1 10 5 12 7 5 2 11 5 16 8 2 1 5 3 7 4 1 1 3 1 3 1 0 0 2 0 3-1z m-48-35c5-2 8-5 9-5 1-1 2-1 2-1 1 0 3-2 5-3 2-1 4-2 4-2 1 0 3-2 5-3 2-1 4-3 5-3 0 0 2-1 4-2 2-1 4-3 5-3 0 0 1-1 2-1 1-1 9-6 10-6 0 0 2-1 4-2 3-2 5-3 5-3 0 0 8-4 10-5 0-1 1-1 2-2 1 0 3-1 5-2 1-1 3-2 3-2 1-1 3-2 5-3 3-2 5-3 5-3 0 0 2-1 4-2 3-2 5-3 5-3 0 0 2-1 4-2 3-2 5-3 5-3 1 0 2-1 2-1 0 0 3-2 6-4l5-2 0-57c0-31 0-57-1-57 0 0-7 5-14 9-3 2-6 4-7 5-1 0-4 2-7 4-3 2-9 5-12 8-4 2-8 4-8 5-1 0-4 2-6 3-2 1-4 3-5 3-4 3-4 3-4 8 0 3-1 6-1 7 0 2-1 4-1 6-1 6-5 15-9 23-5 7-14 18-22 23-5 3-16 9-17 9-1 0-2 0-2 0-1 0-3 1-4 1-2 1-4 1-4 1-1 1-1 7-1 34 0 19 0 34 1 34 0 1 0 1 3-1z m263-60l0-57-1-1c-1-1-4-3-7-4-6-3-12-6-22-12-16-8-19-10-24-12-3-2-7-4-10-5-3-2-9-5-13-7-4-2-9-5-12-6-2-2-8-5-12-7-4-2-9-5-12-6-6-3-12-6-12-6-1 0-1 25-1 57 0 53 0 56 1 57 1 1 3 2 4 3 2 1 5 2 8 4 2 1 4 2 5 3 1 0 3 1 5 2 1 1 5 3 8 5 10 5 11 6 11 5 1-1 1-9 1-18 0-19 0-19 4-22 1 0 2-1 4-1 2 0 3 1 16 8 2 1 5 2 7 4 2 1 5 2 6 3 1 1 4 2 5 3 4 2 6 3 7 5 0 2 1 7 1 24l0 22 1 1c1 1 3 2 5 3 10 5 14 7 17 9 6 3 9 5 10 4 0 0 0-26 0-58z m-272-21c14-2 24-7 33-16 7-7 9-11 13-19 4-8 4-13 4-24 0-10 0-13-3-20-5-14-16-26-29-33-2-1-3-1-4-2-2-1-6-2-11-3-9-2-21-1-29 1-1 0-2 1-3 1-3 1-12 6-16 9-14 11-24 29-24 48 0 11 4 24 11 33 1 1 2 3 3 4 2 3 8 9 13 12 4 3 12 7 13 7 1 0 2 0 2 0 1 1 3 1 5 2 2 0 4 0 6 1 4 0 11 0 16-1z m23-30c0-1-4-4-8-8-4-4-9-8-11-10-3-3-6-6-8-7-1-1-5-5-9-9-4-3-8-7-9-8-2-2-4-2-5-1-1 3-14 20-16 22-4 3-12-1-12-7 0-1 3-6 12-20 2-2 4-5 4-6 6-9 8-11 12-11 3 0 5 1 14 10 2 2 7 7 11 10 4 4 8 7 8 8 5 4 17 15 20 18 2 2 5 5 7 7 2 2 3 3 3 5 0 2-1 5-3 6-2 2-7 2-10 1z m-198 206c-4-2-3-1-3-36 0-28 0-31 0-32 2-4 3-4 33-4 31 0 31 0 33 4l1 2 0 61-1 2c-2 3-2 3-33 3-23 0-28 0-30 0z m49-35l0-20-37 0 0 20c0 10 0 20 0 20 0 1 4 1 18 1l19-1z m35 7c-3-1-6-4-6-7 0-4 2-6 5-7 2-1 5-1 58-1 54 0 57 0 59 1 3 1 5 3 5 7 0 3-1 3-2 5-1 1-3 2-4 2-3 1-112 1-115 0z m-84-76c0-1-2-2-2-3-1-1-1-2-1-33l0-31 1-2c2-3 4-3 33-3 31 0 30 0 32 4l2 3 0 29c0 33 0 32-4 35l-2 1-29 0c-20 0-28 0-30 0z m49-35l0-21-37 0 0 20c0 11 0 20 0 20 0 1 4 1 18 1l19 0z m33 6c-3-2-4-3-4-7 0-4 0-4 2-6l2-1 71 0 2 2c2 1 2 2 2 5 0 4-1 6-4 7-1 1-6 1-35 1-30 0-34 0-36-1z m-81-75c-1-1-2-2-3-2l-1-2 0-31c0-29 0-32 0-33 2-3 3-3 33-3 32 0 32 0 34 4 1 2 1 3 1 31 0 33 0 32-4 35l-2 2-28 0c-25 0-29 0-30-1z m48-35c0-16 0-20-1-20 0-1-4-1-18-1l-18 0 0 21 0 20 37 0z"/>
<glyph glyph-name="lvnvb6lvji" unicode="&#67;" d="M173 495c-2-1-3-2-4-3l-2-2 0-85-1-84-2 0c-1-1-3-1-3-2-1-1-1-2-4-12-3-9-4-12-5-13 0-1-1-1-7 1-1 1-4 2-6 2-2 1-4 2-6 2-1 0-3 1-5 2-2 0-6 1-9 2-3 1-8 3-11 4-18 5-18 5-17 7 0 1 1 3 1 5 1 2 2 6 3 9 3 9 3 13-1 14-2 1-5 1-6-1-1-1-2-3-5-13-3-9-5-17-6-20-1-2-1-4-2-6 0-1-1-3-1-5-1-2-2-5-2-6 0-1-1-4-2-6 0-2-1-4-2-6 0-1-1-5-2-8-1-4-2-7-3-8 0-2-1-4-1-6-1-2-2-5-2-6 0-2-2-5-2-8-1-3-3-9-4-12-1-3-3-9-3-12-1-3-2-6-3-7 0-1 0-2-1-3 0-1-1-4-1-6-4-11-5-17-7-23-1-4-2-8-3-9 0-2-1-4-2-6 0-1-1-4-1-5-1-2-2-5-2-6 0-1-1-4-2-6 0-2-1-4-1-5-1-2-2-4-2-6-1-2-1-5-2-6 0-1-1-4-2-6 0-1-1-4-1-5-1-2-1-4-2-6 0-2-1-4-2-6 0-1-1-3-1-5-1-2-2-5-2-6 0-1-1-4-2-6-1-3-2-8-3-11-1-1-1-4-2-5-2-7-4-16-5-18-1-4-1-8 0-9 3-3 7-3 9 0 1 2 1 2 4 12 1 3 2 8 3 11 1 3 2 6 2 7 1 2 2 3 4 2 1 0 3-1 5-1 2-1 4-2 5-2 2 0 4-1 6-2 2 0 5-1 6-1 1-1 4-1 5-2 2-1 5-1 6-2 1 0 4-1 6-1 2-1 4-2 6-2 1 0 3-1 5-2 6-2 9-3 9-3 0-1 0-2-1-4 0-1-1-4-2-5 0-2-1-5-1-6-1-1-1-4-2-6 0-2-1-4-2-6 0-1-1-4-1-5 0-2 0-3 2-4 2-2 4-3 6-1 2 1 3 3 5 11 1 1 2 5 3 8 1 3 2 5 2 6 0 0 0 1 0 2 1 1 2 5 3 9 1 3 2 7 3 9 0 1 1 3 1 5 1 1 2 5 3 9 1 3 2 7 3 9 0 1 1 4 1 5 0 1 1 4 2 6 0 2 1 4 2 6 0 1 1 3 1 5 1 2 2 5 2 6 0 1 1 4 2 6 0 1 1 4 1 5 1 2 1 4 2 6 1 2 1 4 2 6 0 1 1 3 1 5 3 7 5 15 6 17 0 2 1 4 1 6 1 2 2 5 2 6 0 1 2 5 3 8 1 4 2 9 3 12 1 3 2 8 3 12 1 3 2 6 3 8 0 1 2 5 2 8 1 4 3 9 4 12 1 3 2 8 3 11 1 4 2 7 3 9 0 1 1 4 2 6 0 2 1 4 1 5 1 2 1 4 2 6 1 2 1 4 2 6 0 1 1 4 1 5 1 2 2 5 2 6 1 1 1 3 1 4 0 1 1 1 1 1 0 0 1-47 1-125l-1-126-3 0c-4-1-5-1-6-3-3-2-3-4-3-12 1-6 1-8 5-9 2-1 3-2 18-2l17 0 3 2c3 2 4 4 4 11 0 4 0 7-1 8 0 1 0 1 2 4 2 1 4 3 5 4 6 5 9 8 9 8 1 0 40 34 42 36 2 2 2 2 14-9 6-4 13-10 16-13 4-3 7-6 8-7 1-1 6-5 11-10 5-4 9-8 9-8 0 0-1-1-2-2-2-2-3-4-3-12 0-6 1-7 2-8 3-3 4-4 21-4 18 0 19 1 22 4 1 2 2 3 2 8 0 7-1 9-4 12l-2 2 1 1c4 3 7 6 16 13 4 4 9 8 10 9 2 1 17 14 25 21 4 3 6 4 7 3 0-1 14-12 24-20 1 0 5-3 9-6 15-13 20-17 22-19 2-1 3-2 3-2 0 0-1-1-2-2-3-2-3-4-3-11 0-6 0-7 1-9 3-3 4-4 23-3 16 0 17 0 18 1 1 1 2 2 3 3 1 1 2 7 1 12 0 4-1 4-2 6-2 2-3 2-6 3l-4 0 0 137-1 136-1 2c-2 4-4 4-9 4-4 0-6 0-7-1-3-2-4-5-4-10 0-3 0-5-1-5-1-1-128-1-129 0-1 1-1 7-1 91l-1 90-2 2c-2 3-7 4-11 3-3-1-4-1-5-3l-2-3 0-15c0-12 0-16-1-17 0 0-16 0-67 0-36 0-67 0-67 0 0 1-1 5-1 16l0 16-2 2c-2 4-7 5-13 4z m140-56c0 0-4-4-33-32-23-22-23-23-24-23-1 0-4 3-18 17-5 5-13 13-18 17-22 22-22 21-20 22 1 0 112 0 113-1z m-114-18c6-6 14-14 19-19 6-5 14-13 19-18l10-10-7-6c-4-4-14-13-22-21-24-24-28-28-29-28-1 0-1 12-1 55 0 31 0 56 1 56 0 0 0 0 0 0 0 0 5-4 10-9z m125-46c0-40 0-56-1-56 0 0-4 3-9 7-6 7-37 36-46 45-1 2-2 3-2 3 0 1 1 3 4 5 2 2 12 12 22 22 27 26 30 29 31 29 1 0 1-11 1-55z m-52-25c8-8 17-17 20-20 14-13 21-20 21-21-1-1-113-1-114 0-1 1-2 0 34 35 23 22 22 21 23 21 1-1 8-7 16-15z m-179-51c1 0 4-1 6-2 2 0 4-1 6-2 1 0 5-1 8-2 3-1 8-3 11-3 3-1 9-3 13-4 12-4 11-3 11-6 0-1 0-4-1-5-1-2-2-6-3-11-2-7-3-8-7-6-6 2-8 2-12 3-1 1-4 2-5 2-1 0-4 1-6 2-2 0-4 1-6 2-1 0-3 1-5 1-4 1-8 3-12 4-1 0-4 1-5 1-6 2-7 2-6 4 0 1 0 2 1 3 0 1 1 5 2 8 4 13 4 12 6 12 1 0 3-1 4-1z m216-8c0 0 0 0 0-1 0 0-7-6-15-12-16-14-26-21-33-27-5-4-6-4-8-2-1 1-26 20-28 21-1 1-2 1-2 2 0 0-1 1-3 2-1 1-4 3-6 5-2 1-6 4-9 7-6 4-6 4-5 5 0 1 12 1 54 1 30 0 54 0 55-1z m163 0c0 0 0-1-2-2-1-1-6-5-11-9-5-4-11-10-14-12-5-4-18-15-26-21-7-6-7-6-9-6-1 1-3 2-4 4-2 1-6 5-10 8-4 3-9 6-10 7-1 1-4 4-6 5-3 2-7 5-9 7-2 2-6 5-9 7-15 12-14 11-13 12 1 1 14 1 62 1 33 0 61-1 61-1z m-148-51c0-24-1-44-1-44 0 0-2 1-3 2-2 1-7 5-12 9-4 3-11 8-14 10-3 3-6 5-6 5-1 1-2 2-3 3-1 0-6 4-10 7-4 3-8 6-8 7 0 0 2 2 6 5 3 3 13 11 23 19 9 7 19 15 22 18 3 2 5 3 5 3 0 0 1-19 1-44z m-127 36c4-3 8-7 10-8 9-7 26-19 28-21 2-2 4-4 6-5 2-1 3-3 4-3 0-1-4-4-12-10-6-5-16-13-21-17-5-4-10-8-11-10-2-1-4-2-4-3-5-4-7-5-8-5-1 0-1 3-1 44 0 38 0 43 1 43 1 0 4-2 8-5z m279-43c0-31 0-43-1-43 0 0-2 1-3 2-1 1-5 4-9 7-3 3-9 7-12 10-7 6-7 5-12 10-3 2-5 4-6 4-2 2-9 7-10 8-1 2-1 2 3 5 3 2 6 5 7 6 2 1 4 3 5 4 1 1 4 3 6 5 2 2 7 5 10 8 4 3 7 6 9 7 1 1 3 3 4 4 2 1 4 3 5 4 4 4 4 6 4-41z m-126 40c2-2 6-5 9-7 3-3 5-5 6-5 0 0 2-2 4-3 2-2 5-4 6-5 6-5 24-19 24-19 2-2 2-2-6-8-1-2-3-4-5-5-1-1-4-3-6-5-2-2-4-3-5-4 0 0-3-3-6-5-3-3-6-5-7-6 0 0-3-2-5-4-2-1-5-4-8-6-2-2-4-4-5-4l-1 0 0 88 1 0c1 0 3-1 4-2z m-270-10c1 0 5-1 8-2 5-2 12-4 23-7 3-1 7-2 8-3 2 0 6-2 10-3 5-1 8-2 8-3 1-1 1-2 0-4-2-6-3-8-4-11-1-5-2-9-3-9 0-1-3 0-16 4-2 0-4 1-6 2-2 0-4 1-5 1-1 0-3 1-5 2-11 3-14 4-18 5-2 1-4 1-6 2-6 1-6 1-3 11 1 3 2 7 3 10 2 7 2 7 6 5z m181-36c2-1 4-3 5-4 6-5 30-23 34-26 2-1 7-5 11-8 8-7 8-6 7-7-1-1-119-1-120 0-1 0-1 0-1 1 0 0 2 2 4 4 6 4 8 6 14 11 3 2 6 4 6 5 1 0 7 5 13 10 6 5 13 10 15 12 2 2 4 3 5 4 1 2 3 1 7-2z m-186-2c3-1 8-3 11-4 3-1 8-2 12-3 3-1 7-2 8-3 2 0 5-1 6-1 1-1 4-2 5-2 6-2 9-3 10-3 0-1 0-2-1-3-1-5-2-8-3-11 0-1-1-3-2-5-1-6-1-6-3-6-1 0-3 1-5 1-3 1-7 2-11 4-2 0-4 1-6 1-1 1-4 2-6 2-3 1-5 2-6 2-6 2-8 2-11 3-3 1-5 2-6 2-1 0-3 1-5 2-4 1-5 2-4 4 1 1 1 4 2 6 1 2 1 4 1 5 1 0 1 3 2 5 1 3 2 5 2 5 0 1 2 1 10-1z m340-4c2-1 7-6 9-7 1 0 4-3 7-5 3-3 8-7 11-9 3-3 7-5 8-7 1-1 3-2 4-3 9-7 10-7 9-8-2-1-99-1-101 0 0 0 0 1 0 1 1 1 13 11 15 12 1 1 2 2 3 3 0 0 2 1 3 3 2 1 8 6 15 12 7 5 12 10 13 10 1 0 2 0 4-2z m-354-32c5-2 13-4 20-6 2-1 5-1 6-2 1 0 4-1 5-2 2 0 5-1 6-1 1-1 4-1 6-2 2 0 4-1 6-2 1 0 2-1 3-1 3 0 3-1-1-15-1-3-2-6-2-6 0 0 0-2-1-3-1-2-1-2-2-2 0 0-3 1-5 2-2 0-6 1-9 2-7 2-16 5-20 6-2 1-4 2-6 2-1 0-3 1-5 2-2 0-6 2-9 3-6 1-6 1-6 3 0 1 1 3 1 4 1 2 2 5 3 11 2 7 3 9 4 9 0 0 3-1 6-2z m259-25c0 0-1-2-3-3-2-2-3-3-4-3 0-1-20-18-26-24-7-5-11-9-11-9-1-1-2-2-4-4-5-3-7-5-8-6 0-1-2-2-2-2-2-1-1-2-9 5-3 2-7 6-11 9-3 3-7 6-7 7-1 1-4 3-8 6-2 2-3 3-4 4 0 0-5 4-11 9-11 9-12 11-11 11 1 1 119 1 119 0z m153 0c1 0-1-1-4-4-2-2-6-5-8-7-3-2-10-8-17-14-6-5-14-11-16-13-3-2-6-5-8-7-3-2-5-4-5-4-2-2-5-4-6-4-1 0-2 1-2 1-1 1-3 3-6 5-2 1-4 3-4 3-1 1-3 2-5 4-17 14-46 37-47 38 0 0 0 1 0 2 0 0 7 0 63 1 35 0 63 0 63 0 1-1 2-1 2-1z m-282-9c1-1 5-5 10-9 4-4 9-7 9-8 6-5 35-30 38-33 1 0 2-1 2-2 0 0-5-5-11-10-6-5-12-10-13-11 0 0-2-2-4-3-1-1-5-4-8-7-2-2-6-5-7-7-2-1-4-3-5-4-1-1-3-2-5-3-1-2-3-4-5-5-1-1-2-2-3-2 0 0 0 13-1 52 0 42 0 53 1 53 0 0 1-1 2-1z m-141-3c2 0 4-1 6-2 2 0 4-1 6-1 1-1 4-1 5-2 2-1 5-1 6-2 1 0 4-1 6-1 2-1 4-2 5-2 2 0 4-1 6-2 8-2 9-3 12-3 1-1 3-1 3-2 0 0 0-2-1-5-5-14-6-17-6-18 0 0 0-1 0-1-1-1-2 0-7 1-6 2-9 3-34 10-3 1-7 2-9 3-1 0-4 1-6 2-7 2-7 2-5 8 4 11 6 17 6 18 0 1 4 0 7-1z m274-49c0-48 0-46-3-44-1 1-9 8-18 16-31 26-32 28-32 28 0 1 1 2 3 4 2 1 3 3 4 3 0 0 40 34 42 37 2 1 3 1 3 1 0 0 1-20 1-45z m152 0c0-39 0-45-1-45 0 0-36 29-52 41-2 2-3 5-2 5 0 0 3 2 5 4 6 5 18 15 28 23 9 7 12 10 14 11 0 1 2 2 3 3 2 1 3 2 3 2 0 1 0 1 1 1 1 0 1-3 1-45z m-127 39c3-2 24-19 28-22 1-1 3-3 4-4 1 0 3-2 3-2 1-1 3-2 5-4 3-2 5-4 5-4 1 0 2-1 3-2 1-1 1-2 1-2 0-1-3-4-7-7-4-3-8-7-10-8-6-5-18-15-20-17-2-1-4-3-5-4-7-6-10-8-11-8 0 1 0 20 0 43 0 48-1 45 4 41z m-312-26c1 0 4-1 5-1 2-1 5-2 6-2 1 0 4-1 6-2 2 0 4-1 5-1 2-1 4-2 6-2 2-1 5-2 6-2 1 0 4-1 5-1 2-1 6-2 9-3 3-1 6-2 6-2 1 0 2 0 2-1 1-1 1-2-1-7 0-2-2-6-3-11-1-5-2-7-3-7-1 0-3 0-5 1-2 1-5 2-6 2-2 1-6 2-9 3-3 1-8 2-11 3-15 5-18 5-24 7-4 1-6 2-6 3 0 0 1 3 2 6 1 3 2 9 3 12 2 7 2 7 7 5z"/>
<glyph glyph-name="cog" unicode="&#68;" d="M329 256c0 20-7 37-21 52-15 14-32 21-52 21-20 0-37-7-52-21-14-15-21-32-21-52 0-20 7-37 21-52 15-14 32-21 52-21 20 0 37 7 52 21 14 15 21 32 21 52z m146 31l0-63c0-3 0-5-2-7-1-2-3-3-6-4l-52-8c-4-10-8-19-12-26 7-9 17-22 31-39 2-2 3-5 3-7 0-3-1-5-3-7-5-7-14-17-28-31-14-13-23-20-27-20-2 0-5 1-7 3l-40 31c-8-5-17-8-26-11-3-26-6-44-8-53-1-6-5-8-10-8l-64 0c-2 0-5 0-7 2-2 2-3 4-3 6l-8 53c-9 3-18 6-26 10l-40-30c-2-2-4-3-7-3-3 0-5 1-7 3-24 22-40 38-47 48-2 2-2 4-2 7 0 2 0 4 2 6 3 4 8 11 14 19 7 9 12 16 16 21-5 9-9 19-12 28l-52 8c-3 0-5 1-6 3-2 2-2 4-2 7l0 63c0 3 0 5 2 7 1 2 3 3 5 4l53 8c3 8 7 17 12 26-8 11-18 24-31 39-2 3-3 5-3 7 0 2 1 4 3 7 5 7 14 17 28 30 14 14 23 21 27 21 2 0 5-1 7-3l40-31c8 5 17 8 26 11 3 26 6 44 8 53 1 6 5 8 10 8l64 0c2 0 5 0 7-2 2-2 3-4 3-6l8-53c9-3 18-6 26-10l40 30c2 2 4 3 7 3 3 0 5-1 7-3 25-23 41-39 47-49 2-1 2-3 2-6 0-2 0-4-2-6-3-4-8-11-14-19-7-9-12-16-16-21 5-9 9-18 12-28l52-8c3 0 5-1 6-3 2-2 2-4 2-7z"/>
<glyph glyph-name="mobile" unicode="&#69;" d="M279 110c0 6-2 11-7 16-4 4-10 7-16 7-6 0-12-3-16-7-5-5-7-10-7-16 0-7 2-12 7-16 4-5 10-7 16-7 6 0 12 2 16 7 5 4 7 9 7 16z m59 45l0 202c0 2-1 4-2 6-2 2-4 3-7 3l-146 0c-3 0-5-1-7-3-1-2-2-4-2-6l0-202c0-2 1-4 2-6 2-2 4-3 7-3l146 0c3 0 5 1 7 3 1 2 2 4 2 6z m-55 243c0 3-1 4-4 4l-46 0c-3 0-4-1-4-4 0-3 1-5 4-5l46 0c3 0 4 2 4 5z m83 4l0-292c0-10-4-19-11-26-7-7-16-11-26-11l-146 0c-10 0-19 4-26 11-7 7-11 16-11 26l0 292c0 10 4 19 11 26 7 7 16 11 26 11l146 0c10 0 19-4 26-11 7-7 11-16 11-26z"/>
<glyph glyph-name="desktop" unicode="&#70;" d="M494 229l0 237c0 3-1 5-3 7-2 2-4 2-6 2l-458 0c-2 0-4 0-6-2-2-2-3-4-3-7l0-237c0-3 1-5 3-7 2-2 4-3 6-3l458 0c2 0 4 1 6 3 2 2 3 4 3 7z m36 237l0-311c0-12-4-23-13-32-9-9-20-13-32-13l-156 0c0-7 2-15 5-22 3-8 6-15 9-21 3-6 4-10 4-12 0-5-1-9-5-13-4-4-8-5-13-5l-146 0c-5 0-9 1-13 5-4 4-5 8-5 13 0 3 1 7 4 12 3 6 6 13 9 20 3 8 5 15 5 23l-156 0c-12 0-23 4-32 13-9 9-13 20-13 32l0 311c0 13 4 24 13 33 9 9 20 13 32 13l458 0c12 0 23-4 32-13 9-9 13-20 13-33z"/>
<glyph glyph-name="clock" unicode="&#71;" d="M272 352c0-9-7-16-16-16-9 0-16 7-16 16 0 9 7 16 16 16 9 0 16-7 16-16z m0-192c0-9-7-16-16-16-9 0-16 7-16 16 0 9 7 16 16 16 9 0 16-7 16-16z m-96 96c0-9-7-16-16-16-9 0-16 7-16 16 0 9 7 16 16 16 9 0 16-7 16-16z m192 0c0-9-7-16-16-16-9 0-16 7-16 16 0 9 7 16 16 16 9 0 16-7 16-16z m-164-68c0-9-7-16-16-16-9 0-16 7-16 16 0 9 7 16 16 16 9 0 16-7 16-16z m0 136c0-9-7-16-16-16-9 0-16 7-16 16 0 9 7 16 16 16 9 0 16-7 16-16z m136-136c0-9-7-16-16-16-9 0-16 7-16 16 0 9 7 16 16 16 9 0 16-7 16-16z m76 100c-1 0-2-1-3-1-6 28-19 53-37 74l-23 125c-3 15-16 26-31 26l-128 0c-16 0-29-11-32-26l-22-121c-27-29-44-67-44-109 0-41 16-78 42-107l23-123c2-15 16-26 31-26l128 0c15 0 29 11 31 26l23 123c19 21 33 47 39 76 1 0 2-1 3-1 18 0 32 14 32 32 0 18-14 32-32 32z m-222 192l128 0 16-86c-24 14-51 22-80 22-30 0-57-8-80-22z m126-448l-128 0-16 86c24-14 51-22 80-22 29 0 56 8 80 22z m-64 96c-71 0-128 57-128 128 0 71 57 128 128 128 71 0 128-57 128-128 0-71-57-128-128-128z m79 208c-2 2-5 2-7 0l-83-69c-3-3-5-7-5-11 0-4 2-8 5-11 3-3 7-5 11-5 4 0 8 2 11 4l30 36 39 48c1 3 1 6-1 8z"/>
<glyph glyph-name="download" unicode="&#72;" d="M384 128c0 5-2 9-5 13-4 3-8 5-13 5-5 0-10-2-13-5-4-4-6-8-6-13 0-5 2-9 6-13 3-3 8-5 13-5 5 0 9 2 13 5 3 4 5 8 5 13z m73 0c0 5-2 9-5 13-4 3-8 5-13 5-5 0-9-2-13-5-4-4-5-8-5-13 0-5 1-9 5-13 4-3 8-5 13-5 5 0 9 2 13 5 3 4 5 8 5 13z m37 64l0-91c0-8-3-15-8-20-6-5-12-8-20-8l-420 0c-8 0-14 3-20 8-5 5-8 12-8 20l0 91c0 8 3 14 8 19 6 6 12 8 20 8l133 0 38-38c11-11 24-16 39-16 15 0 28 5 39 16l39 38 132 0c8 0 14-2 20-8 5-5 8-11 8-19z m-93 163c3-8 2-15-4-20l-128-128c-4-4-8-6-13-6-5 0-9 2-13 6l-128 128c-6 5-7 12-4 20 3 7 9 11 17 11l73 0 0 128c0 5 2 9 6 13 3 3 7 5 12 5l74 0c5 0 9-2 12-5 4-4 6-8 6-13l0-128 73 0c8 0 14-4 17-11z"/>
<glyph glyph-name="clipboard" unicode="&#73;" d="M219 37l256 0 0 182-118 0c-8 0-15 3-20 8-5 6-8 12-8 20l0 119-110 0z m74 411l0 18c0 3-1 5-3 7-2 2-4 2-7 2l-201 0c-2 0-4 0-6-2-2-2-3-4-3-7l0-18c0-2 1-5 3-6 2-2 4-3 6-3l201 0c3 0 5 1 7 3 2 1 3 4 3 6z m73-192l85 0-85 85z m146-37l0-192c0-7-3-14-8-19-5-5-12-8-19-8l-275 0c-7 0-14 3-19 8-5 5-8 12-8 19l0 46-156 0c-7 0-14 3-19 8-5 5-8 12-8 20l0 384c0 7 3 14 8 19 5 5 12 8 19 8l311 0c8 0 14-3 20-8 5-5 8-12 8-19l0-94c4-3 7-5 10-8l117-117c5-5 9-12 13-21 4-10 6-18 6-26z"/>
<glyph glyph-name="info" unicode="&#74;" d="M256 448c-106 0-192-86-192-192 0-106 86-192 192-192 106 0 192 86 192 192 0 106-86 192-192 192z m20-299c0-3-3-6-7-6l-26 0c-4 0-7 3-7 6l0 124c0 4 3 7 7 7l26 0c4 0 7-3 7-7z m-20 159c-13 0-23 10-23 23 0 13 10 23 23 23 13 0 23-10 23-23 0-13-10-23-23-23z"/>
</font>
</defs>
</svg>
